<svg width="97" height="95" xmlns="http://www.w3.org/2000/svg" xmlns:xlink="http://www.w3.org/1999/xlink" xml:space="preserve" overflow="hidden"><defs><clipPath id="clip0"><rect x="569" y="166" width="97" height="95"/></clipPath></defs><g clip-path="url(#clip0)" transform="translate(-569 -166)"><path d="M26.578 25.2614 59.0867 25.2614 110.486 25.2614 107.85 45.4695 110.486 59.0878 107.85 103.018 105.214 108.29 96.8671 108.29 73.1445 108.29 43.7109 108.29 26.578 108.29 23.0635 103.018 23.0635 65.2381C23.3564 58.0631 23.7664 42.0429 23.0635 35.3655 22.3606 28.688 25.1136 25.8472 26.578 25.2614Z" fill="#FFFFFF" transform="matrix(1.00365 0 0 1 550.261 150.834)"/><path d="M105.46 23.8468C104.467 23.3811 103.975 23.7062 103.755 24.2685Z" fill="#EDF2F3" transform="matrix(1.00365 0 0 1 550.261 150.834)"/><path d="M32.4031 55.0023 32.4031 43.967 36.2427 43.967C37.3139 43.896 38.3804 44.1635 39.2915 44.7314 39.6366 44.9936 39.9118 45.3368 40.0926 45.7306 40.2734 46.1245 40.3544 46.5569 40.3282 46.9895 40.3369 47.4974 40.1931 47.9963 39.9153 48.4216 39.6273 48.8259 39.2226 49.1325 38.7555 49.3002 39.2892 49.4291 39.7614 49.7397 40.091 50.1788 40.4234 50.6376 40.5934 51.1941 40.5742 51.7603 40.6058 52.2127 40.5308 52.6661 40.3553 53.0842 40.1798 53.5023 39.9088 53.8735 39.5638 54.1677 38.7251 54.7812 37.7026 55.0912 36.6644 55.0462ZM34.6787 48.5885 36.3569 48.5885C37.5079 48.5885 38.1141 48.1141 38.1141 47.2179 38.1345 47.0156 38.1051 46.8114 38.0286 46.6231 37.952 46.4347 37.8305 46.2679 37.6748 46.1372 37.2462 45.8742 36.7428 45.7599 36.2427 45.8121L34.6787 45.8121ZM34.6787 50.1964 34.6787 53.1749 36.6205 53.1749C37.071 53.2039 37.517 53.0698 37.8769 52.7971 38.0279 52.6655 38.1474 52.5016 38.2265 52.3176 38.3055 52.1336 38.3422 51.9341 38.3338 51.734 38.3587 51.523 38.3349 51.3091 38.2641 51.1087 38.1934 50.9084 38.0775 50.7269 37.9256 50.5783 37.7737 50.4298 37.5897 50.3182 37.3878 50.2519 37.1859 50.1857 36.9715 50.1667 36.761 50.1964Z" fill="#001350" transform="matrix(1.00365 0 0 1 550.261 150.834)"/><path d="M46.9267 54.1679C46.6554 54.4948 46.3117 54.7539 45.9228 54.9248 45.5339 55.0956 45.1105 55.1736 44.6862 55.1522 44.3162 55.1791 43.9446 55.1253 43.5973 54.9951 43.2499 54.8645 42.935 54.6603 42.6742 54.3963 42.1662 53.7711 41.9121 52.9775 41.9625 52.1735L41.9625 46.7876 44.1503 46.7876 44.1503 52.0592C44.1503 52.9378 44.5457 53.342 45.3188 53.342 45.6223 53.3742 45.9286 53.3185 46.2012 53.1814 46.4739 53.0443 46.7013 52.8316 46.8564 52.5688L46.8564 46.7876 49.0529 46.7876 49.0529 54.9852 46.9882 54.9852Z" fill="#001350" transform="matrix(1.00365 0 0 1 550.261 150.834)"/><path d="M55.1857 48.852C54.9237 48.8167 54.6595 48.7961 54.395 48.7905 54.0664 48.7508 53.7336 48.814 53.4425 48.9713 53.1513 49.1287 52.9162 49.3725 52.7695 49.6691L52.7695 55.0374 50.5818 55.0374 50.5818 46.7873 52.6465 46.7873 52.708 47.7625C52.8759 47.4214 53.1362 47.1343 53.4593 46.9339 53.7824 46.7335 54.1553 46.6279 54.5355 46.6291 54.7681 46.6278 54.9995 46.6634 55.2208 46.7346Z" fill="#001350" transform="matrix(1.00365 0 0 1 550.261 150.834)"/><path d="M63.4798 50.9785C63.5319 52.0612 63.2228 53.1304 62.6012 54.0185 62.3365 54.3822 61.9867 54.6757 61.582 54.8732 61.1778 55.0709 60.7314 55.1664 60.2816 55.1516 59.9022 55.1648 59.5244 55.0923 59.1762 54.9402 58.8281 54.7884 58.5184 54.5604 58.2696 54.2733L58.2696 58.1389 56.0555 58.1389 56.0555 46.7875 58.0851 46.7875 58.1642 47.587C58.4135 47.2791 58.7298 47.0326 59.0895 46.8666 59.4491 46.7005 59.8418 46.6194 60.2377 46.6293 60.6951 46.6116 61.1498 46.7064 61.5622 46.9056 61.974 47.1047 62.331 47.4021 62.6012 47.7715 63.2206 48.6804 63.5292 49.7654 63.4798 50.8643ZM61.292 50.8203C61.3283 50.208 61.1877 49.5981 60.8879 49.0631 60.7632 48.8651 60.5891 48.7034 60.3827 48.5939 60.1762 48.4844 59.9445 48.4311 59.7105 48.4393 59.4211 48.4122 59.1306 48.4732 58.8764 48.6144 58.6227 48.7555 58.4173 48.9701 58.2872 49.23L58.2872 52.5863C58.4168 52.8495 58.6232 53.0674 58.8786 53.2116 59.1339 53.3558 59.4272 53.4196 59.7193 53.3947 60.7209 53.3859 61.2481 52.5336 61.2481 50.8203Z" fill="#001350" transform="matrix(1.00365 0 0 1 550.261 150.834)"/><path d="M74.2164 52.1119C74.2274 51.9226 74.1923 51.7334 74.1143 51.5606 74.0363 51.3877 73.9177 51.2362 73.7683 51.1191 73.2598 50.7958 72.7063 50.55 72.1253 50.3898 71.4806 50.1934 70.8541 49.9406 70.2539 49.6343 69.7108 49.408 69.2446 49.0298 68.9112 48.5451 68.5774 48.0604 68.3907 47.4898 68.3736 46.9018 68.3654 46.3289 68.5406 45.7685 68.8745 45.3027 69.2484 44.8114 69.7498 44.4317 70.3242 44.2044 70.9985 43.9402 71.7173 43.8089 72.4416 43.8178 73.1665 43.8043 73.8864 43.9482 74.5503 44.2395 75.134 44.5016 75.6332 44.9215 75.9912 45.4521 76.3311 45.9746 76.5085 46.586 76.5008 47.2093L74.2252 47.2093C74.2378 46.9901 74.2021 46.7709 74.1203 46.5674 74.0379 46.3637 73.9116 46.1809 73.7507 46.0319 73.3702 45.7295 72.8914 45.5792 72.4065 45.6102 71.949 45.5813 71.4949 45.7049 71.1149 45.9617 70.9677 46.0679 70.8491 46.208 70.7679 46.3702 70.6866 46.5323 70.646 46.7117 70.6493 46.8929 70.658 47.0737 70.7124 47.2492 70.8074 47.4029 70.9029 47.5567 71.0358 47.6836 71.194 47.7715 71.6871 48.0771 72.2231 48.3081 72.7843 48.4569 73.8293 48.7086 74.799 49.2055 75.6134 49.9066 75.9012 50.1847 76.1279 50.5197 76.2795 50.8903 76.4305 51.261 76.503 51.6591 76.492 52.0592 76.5118 52.4942 76.4234 52.9273 76.2345 53.3198 76.0461 53.7123 75.7633 54.052 75.4113 54.3085 74.5486 54.8863 73.5223 55.1697 72.4855 55.117 71.6943 55.1417 70.9062 54.9979 70.1748 54.6951 69.534 54.431 68.9821 53.9889 68.5845 53.4211 68.2122 52.8657 68.0189 52.2094 68.031 51.5408L70.3154 51.5408C70.3154 52.7621 71.0446 53.3684 72.4943 53.3684 72.9435 53.3929 73.3889 53.2761 73.7683 53.0345 73.9144 52.9304 74.0314 52.7914 74.1099 52.6303 74.1879 52.4691 74.2247 52.2909 74.2164 52.1119Z" fill="#001350" transform="matrix(1.00365 0 0 1 550.261 150.834)"/><path d="M82.7214 54.1679C82.4485 54.495 82.1031 54.7541 81.7126 54.9248 81.3222 55.0956 80.8977 55.1736 80.4721 55.1522 80.102 55.178 79.7308 55.1236 79.3838 54.9935 79.0367 54.863 78.7215 54.6594 78.4601 54.3963 77.9588 53.7678 77.7084 52.9758 77.7572 52.1735L77.7572 46.7876 79.945 46.7876 79.945 52.0592C79.945 52.9378 80.3316 53.342 81.1135 53.342 81.4161 53.3758 81.7214 53.3207 81.9932 53.1834 82.2645 53.0461 82.4902 52.8325 82.6423 52.5688L82.6423 46.7876 84.8476 46.7876 84.8476 54.9852 82.8092 54.9852Z" fill="#001350" transform="matrix(1.00365 0 0 1 550.261 150.834)"/><path d="M86.3237 44.6789C86.3182 44.5289 86.3446 44.3794 86.4006 44.2402 86.4566 44.101 86.5412 43.9751 86.6488 43.8706 86.7663 43.7608 86.9047 43.6756 87.0557 43.6198 87.2062 43.5639 87.3665 43.5387 87.5274 43.5455 87.6883 43.5382 87.8486 43.5632 87.9996 43.6191 88.1507 43.6749 88.2885 43.7604 88.406 43.8706 88.6191 44.0875 88.7382 44.3793 88.7382 44.6833 88.7382 44.9873 88.6191 45.2791 88.406 45.496 88.1649 45.7112 87.8503 45.8246 87.5274 45.8123 87.2051 45.8228 86.8904 45.7096 86.6488 45.496 86.5406 45.3899 86.456 45.2624 86.4 45.1217 86.344 44.981 86.3182 44.8302 86.3237 44.6789ZM88.652 55.0028 86.4555 55.0028 86.4555 46.7876 88.652 46.7876Z" fill="#001350" transform="matrix(1.00365 0 0 1 550.261 150.834)"/><path d="M92.8782 44.7843 92.8782 46.7875 94.2839 46.7875 94.2839 48.3866 92.8782 48.3866 92.8782 52.4985C92.8578 52.7319 92.9199 52.9651 93.0539 53.1574 93.1461 53.2334 93.2532 53.2897 93.368 53.3229 93.4827 53.3562 93.603 53.3656 93.7216 53.3507 93.9369 53.3533 94.1516 53.3356 94.363 53.298L94.363 54.9583C93.933 55.089 93.4855 55.1544 93.0363 55.1516 92.7227 55.1901 92.4042 55.1566 92.1055 55.0539 91.8062 54.9506 91.535 54.7809 91.3115 54.5573 91.088 54.3338 90.9183 54.0623 90.8151 53.7634 90.7118 53.4646 90.6783 53.1461 90.7168 52.8324L90.7168 48.4393 89.4955 48.4393 89.4955 46.7875 90.7168 46.7875 90.7168 44.7667Z" fill="#001350" transform="matrix(1.00365 0 0 1 550.261 150.834)"/><path d="M98.9494 55.1516C98.4068 55.1774 97.8643 55.0923 97.3552 54.9019 96.8462 54.7117 96.3816 54.42 95.9884 54.0448 95.6057 53.6595 95.3075 53.1988 95.1126 52.6922 94.9176 52.1855 94.8298 51.6438 94.855 51.1014L94.855 50.8906C94.8419 50.126 95.0038 49.3685 95.3295 48.6765 95.6266 48.0559 96.0966 47.5342 96.6825 47.174 97.2893 46.8176 97.9823 46.6353 98.6858 46.6469 99.1756 46.6246 99.6649 46.708 100.12 46.8914 100.574 47.0749 100.984 47.354 101.322 47.71 102.016 48.5549 102.361 49.6327 102.288 50.7236L102.288 51.6022 97.1043 51.6022C97.1422 52.1123 97.3712 52.5893 97.7457 52.9377 98.1174 53.2674 98.6023 53.4406 99.0987 53.421 99.4743 53.4439 99.8505 53.3761 100.194 53.2231 100.539 53.0702 100.841 52.8367 101.076 52.5424L102.139 53.6758C101.799 54.1489 101.342 54.5246 100.812 54.7652 100.227 55.0286 99.5913 55.1604 98.9494 55.1516ZM98.7034 48.4129C98.5051 48.4046 98.308 48.4406 98.1257 48.5181 97.9434 48.5956 97.7803 48.7127 97.649 48.861 97.3486 49.2158 97.1647 49.6544 97.1218 50.1174L100.171 50.1174 100.171 49.9505C100.19 49.5357 100.048 49.1296 99.7753 48.817 99.6363 48.6763 99.4688 48.5674 99.2838 48.4976 99.0987 48.4278 98.9005 48.3989 98.7034 48.4129Z" fill="#001350" transform="matrix(1.00365 0 0 1 550.261 150.834)"/><path d="M46.6367 70.4049C46.578 71.4554 46.1076 72.44 45.3275 73.1462 44.477 73.8386 43.4006 74.1923 42.3051 74.139 41.486 74.1522 40.6795 73.9358 39.9768 73.5152 39.3017 73.0918 38.7643 72.4812 38.4304 71.7579 38.0577 70.9288 37.8631 70.0309 37.8593 69.1221L37.8593 68.0326C37.8401 67.0865 38.029 66.1475 38.4128 65.2826 38.7575 64.5407 39.31 63.9152 40.0031 63.4814 40.7181 63.0306 41.5479 62.7955 42.393 62.8049 43.4647 62.7489 44.5173 63.1042 45.3363 63.7977 46.1148 64.5259 46.5809 65.5269 46.6367 66.5917L44.7213 66.5917C44.6974 65.9569 44.4519 65.3507 44.0272 64.8784 43.5704 64.5001 42.9844 64.3139 42.393 64.36 42.0248 64.3375 41.6567 64.4056 41.3212 64.5588 40.9856 64.712 40.6929 64.9454 40.4688 65.2386 39.9838 66.0294 39.7453 66.947 39.7835 67.8745L39.7835 68.9288C39.7264 69.8827 39.9494 70.8321 40.4249 71.6613 40.6312 71.9661 40.9125 72.2126 41.2419 72.3774 41.5712 72.5421 41.9373 72.619 42.3051 72.6014 42.9138 72.6453 43.5173 72.4636 44.0008 72.0918 44.4352 71.6338 44.6909 71.0353 44.7213 70.4049Z" fill="#001350" transform="matrix(1.00365 0 0 1 550.261 150.834)"/><path d="M51.6799 74.1478C51.1561 74.1692 50.6335 74.0819 50.1451 73.8913 49.6567 73.7008 49.213 73.4108 48.842 73.0407 48.472 72.6503 48.1847 72.189 47.9974 71.6844 47.8102 71.1803 47.7269 70.6432 47.7525 70.1062L47.7525 69.8777C47.7401 69.1188 47.9025 68.3671 48.227 67.6812 48.519 67.0651 48.9789 66.5445 49.5537 66.1788 50.1247 65.8207 50.7866 65.6346 51.4603 65.6428 51.9518 65.6055 52.4453 65.6818 52.9024 65.8663 53.3596 66.0508 53.7681 66.338 54.0961 66.7059 54.7419 67.5785 55.0533 68.6543 54.9748 69.7371L54.9748 70.5103 49.6152 70.5103C49.6475 71.0995 49.8908 71.658 50.3005 72.083 50.4974 72.2785 50.7323 72.4317 50.9907 72.5328 51.2491 72.6344 51.5256 72.6816 51.803 72.6717 52.1952 72.6739 52.5823 72.5822 52.9322 72.4054 53.282 72.228 53.5847 71.9699 53.815 71.6525L54.8078 72.6014C54.4812 73.0918 54.0291 73.4861 53.4987 73.7436 52.9299 74.011 52.3086 74.1494 51.6799 74.1478ZM51.4603 67.1189C51.2291 67.1106 50.999 67.154 50.7864 67.2452 50.5738 67.3358 50.3839 67.4731 50.2302 67.646 49.8919 68.0722 49.6871 68.5883 49.6416 69.1309L53.156 69.1309 53.156 68.9903C53.1544 68.4824 52.981 67.9898 52.664 67.5933 52.5099 67.4313 52.3224 67.305 52.1145 67.2232 51.9066 67.1414 51.6833 67.1057 51.4603 67.1189Z" fill="#001350" transform="matrix(1.00365 0 0 1 550.261 150.834)"/><path d="M60.6067 67.4698C60.3563 67.4341 60.1037 67.4165 59.8511 67.4171 59.5019 67.3808 59.1499 67.4544 58.844 67.6274 58.5387 67.8009 58.2949 68.065 58.1466 68.3835L58.1466 74.0242 56.3103 74.0242 56.3103 65.7916 58.0675 65.7916 58.0675 66.6702C58.2597 66.3419 58.5381 66.0722 58.8725 65.891 59.2075 65.7098 59.5853 65.6241 59.9653 65.6423 60.1866 65.6362 60.4074 65.6719 60.6155 65.7477Z" fill="#001350" transform="matrix(1.00365 0 0 1 550.261 150.834)"/><path d="M64.3584 63.7972 64.3584 65.7916 65.8081 65.7916 65.8081 67.1535 64.3584 67.1535 64.3584 71.731C64.3364 71.9743 64.4018 72.217 64.5429 72.4164 64.6346 72.4938 64.7411 72.552 64.8559 72.5866 64.9707 72.6212 65.0915 72.6322 65.2106 72.6184 65.4264 72.6217 65.6417 72.5981 65.852 72.5481L65.852 73.9715C65.4572 74.0835 65.0497 74.1423 64.6395 74.1472 63.225 74.1472 62.5221 73.3653 62.5221 71.8013L62.5221 67.1535 61.1778 67.1535 61.1778 65.7916 62.5309 65.7916 62.5309 63.7972Z" fill="#001350" transform="matrix(1.00365 0 0 1 550.261 150.834)"/><path d="M66.9239 63.6571C66.9195 63.5275 66.9415 63.3985 66.9882 63.2777 67.0349 63.1569 67.1057 63.0465 67.1963 62.9542 67.2973 62.8565 67.4176 62.7813 67.5488 62.7329 67.6806 62.6846 67.8207 62.6643 67.9607 62.6731 68.1018 62.6638 68.2435 62.6846 68.3769 62.7329 68.5098 62.7813 68.6312 62.8565 68.7339 62.9542 68.8261 63.046 68.8986 63.1558 68.9469 63.2766 68.9953 63.3974 69.0183 63.527 69.015 63.6571 69.0216 63.7862 69.0018 63.9147 68.9563 64.036 68.9112 64.1569 68.8415 64.2672 68.7514 64.36 68.6488 64.4572 68.5274 64.533 68.3945 64.5813 68.2611 64.6297 68.1194 64.65 67.9783 64.6412 67.8382 64.65 67.6982 64.6291 67.5664 64.5808 67.4352 64.5325 67.3149 64.4572 67.2139 64.36 67.1189 64.2694 67.0442 64.1607 66.9942 64.0393 66.9442 63.918 66.9201 63.7878 66.9239 63.6571ZM68.8832 74.0248 67.0381 74.0248 67.0381 65.7922 68.8832 65.7922Z" fill="#001350" transform="matrix(1.00365 0 0 1 550.261 150.834)"/><path d="M71.2643 74.0248 71.2643 67.154 70.0166 67.154 70.0166 65.7922 71.2643 65.7922 71.2643 65.0366C71.2407 64.6533 71.2956 64.2694 71.4257 63.9086 71.5553 63.5473 71.7574 63.2167 72.0199 62.9367 72.306 62.6758 72.6421 62.4754 73.0072 62.3475 73.3724 62.219 73.7595 62.1651 74.1461 62.1899 74.4932 62.191 74.8391 62.2382 75.1741 62.3304L75.1741 63.7714C74.9424 63.7263 74.7068 63.7055 74.4712 63.7099 74.2884 63.684 74.1028 63.7016 73.9281 63.7609 73.7535 63.8202 73.5953 63.9196 73.4663 64.0514 73.3372 64.1827 73.2406 64.343 73.1846 64.5187 73.1291 64.6945 73.1154 64.8806 73.1445 65.0629L73.1445 65.7922 74.8139 65.7922 74.8139 67.154 73.1445 67.154 73.1445 74.0248Z" fill="#001350" transform="matrix(1.00365 0 0 1 550.261 150.834)"/><path d="M76.0527 63.6571C76.0478 63.3958 76.1455 63.1437 76.3251 62.9542 76.4278 62.8565 76.5491 62.7813 76.6826 62.7329 76.8155 62.6846 76.9571 62.6638 77.0983 62.6731 77.2394 62.6649 77.3811 62.6857 77.514 62.734 77.6469 62.7824 77.7682 62.8576 77.8714 62.9542 78.051 63.1437 78.1488 63.3958 78.1438 63.6571 78.1466 63.7851 78.124 63.9119 78.0774 64.0311 78.0307 64.1503 77.9604 64.259 77.8714 64.3512 77.7682 64.4479 77.6469 64.5226 77.514 64.5709 77.3811 64.6192 77.2394 64.6401 77.0983 64.6324 76.9571 64.6412 76.8155 64.6209 76.6826 64.5725 76.5491 64.5242 76.4278 64.4484 76.3251 64.3512 76.2361 64.259 76.1658 64.1503 76.1192 64.0311 76.0725 63.9119 76.05 63.7851 76.0527 63.6571ZM78.012 74.0248 76.1669 74.0248 76.1669 65.7922 78.012 65.7922Z" fill="#001350" transform="matrix(1.00365 0 0 1 550.261 150.834)"/><path d="M83.3716 74.1472C82.8477 74.1692 82.3249 74.0819 81.8367 73.8913 81.3486 73.7008 80.9049 73.4108 80.5336 73.0402 80.1635 72.6497 79.8763 72.189 79.6891 71.6844 79.5018 71.1803 79.4184 70.6432 79.4442 70.1056L79.4442 69.8772C79.4315 69.1183 79.5941 68.3671 79.9186 67.6806 80.2107 67.0651 80.6704 66.5445 81.2453 66.1782 81.8192 65.8191 82.4842 65.6329 83.1607 65.6423 83.6434 65.6132 84.1266 65.6939 84.5742 65.8778 85.0217 66.0623 85.4215 66.3451 85.7438 66.7054 86.3934 67.5769 86.7053 68.6537 86.6224 69.7366L86.6224 70.5098 81.2629 70.5098C81.2843 71.1105 81.5254 71.6827 81.9394 72.1176 82.1371 72.3126 82.3721 72.4652 82.6302 72.5663 82.8883 72.6679 83.1645 72.7151 83.4418 72.7063 83.8427 72.7151 84.2392 72.6267 84.5989 72.4493 84.958 72.2719 85.2694 72.0105 85.5066 71.6871L86.4994 72.636C86.1672 73.1253 85.7131 73.519 85.1815 73.7782 84.6126 74.033 83.9948 74.1588 83.3716 74.1472ZM83.1519 67.1183C82.9207 67.1106 82.6906 67.1535 82.4781 67.2446 82.2656 67.3358 82.0756 67.4731 81.9219 67.6455 81.5836 68.0716 81.3788 68.5883 81.3332 69.1303L84.8476 69.1303 84.8476 68.9898C84.846 68.4824 84.6725 67.9898 84.3556 67.5928 84.2013 67.4313 84.014 67.305 83.8059 67.2232 83.5984 67.1408 83.3749 67.1051 83.1519 67.1183Z" fill="#001350" transform="matrix(1.00365 0 0 1 550.261 150.834)"/><path d="M87.6592 69.8338C87.6081 68.7481 87.9167 67.6762 88.5378 66.785 88.8102 66.4176 89.1677 66.1217 89.579 65.9229 89.9908 65.7241 90.4444 65.628 90.9013 65.6428 91.2961 65.6214 91.6909 65.6895 92.0555 65.8416 92.4207 65.9937 92.7469 66.226 93.0099 66.5214L93.0099 62.348 94.8462 62.348 94.8462 74.0248 93.1769 74.0248 93.089 73.1462C92.8238 73.4723 92.4872 73.7326 92.1044 73.9062 91.7217 74.0802 91.3038 74.1626 90.8837 74.1478 90.4307 74.1577 89.982 74.0572 89.5762 73.8551 89.171 73.653 88.8201 73.3554 88.5554 72.988 87.9134 72.0655 87.5982 70.9557 87.6592 69.8338ZM89.5043 69.9919C89.4636 70.6756 89.6322 71.356 89.9875 71.9425 90.1347 72.1671 90.3373 72.3499 90.5756 72.4729 90.8145 72.5965 91.0808 72.6558 91.3494 72.6453 91.6948 72.6585 92.0369 72.5701 92.3323 72.3905 92.6272 72.2104 92.8633 71.9479 93.0099 71.6349L93.0099 68.1205C92.8606 67.8146 92.6261 67.5593 92.3345 67.3847 92.0424 67.21 91.7069 67.1238 91.3669 67.1364 91.0951 67.1255 90.8249 67.1853 90.5833 67.31 90.3417 67.4346 90.1363 67.6202 89.9875 67.8481 89.619 68.4994 89.451 69.2451 89.5043 69.9919Z" fill="#001350" transform="matrix(1.00365 0 0 1 550.261 150.834)"/><path d="M115.318 80.4996 110.644 80.4996 110.723 79.3398C111.057 73.9276 111.355 68.6208 111.47 63.2261 111.601 57.3042 110.942 52.0678 110.591 47.4112 110.358 42.2453 110.425 37.0704 110.793 31.9124 110.793 31.4204 110.793 30.9372 110.863 30.4627 110.916 29.5841 110.96 28.7055 110.969 27.739L110.969 27.4579C110.987 26.6942 110.886 25.9324 110.67 25.1998 110.446 24.4545 109.942 23.8248 109.264 23.4426 108.718 23.1769 108.112 23.0616 107.507 23.1087L85.5417 23.9434C84.7422 23.9434 81.4738 24.4266 81.4035 24.7781 81.4035 24.822 81.4035 24.8747 81.4035 24.9275 81.4035 25.7446 84.0393 26.0872 84.0393 26.0872L105.407 26.5792 106.628 26.4211 107.437 26.5968 107.437 26.711 107.621 26.7901C107.621 27.0273 107.621 27.3524 107.621 27.7654 107.621 28.5913 107.56 29.4523 107.516 30.3221 107.516 30.8142 107.454 31.315 107.437 31.7982 107.18 36.7928 107.227 41.7984 107.577 46.7873 107.911 51.6636 108.236 57.4097 108.113 63.1558 108.008 68.5153 107.7 73.7606 107.375 79.1114L107.279 80.4908 25.9542 80.4908C25.8312 74.7447 25.6994 69.1743 25.5237 63.9641 25.2777 55.0989 25.0405 46.7346 25.0405 39.653L24.9877 29.751 24.9877 29.0921C25.0818 28.6476 25.2806 28.2319 25.5676 27.8796 25.737 27.6489 25.9644 27.4671 26.2266 27.3524L26.3408 27.3524 26.499 27.3524 50.898 27.0801C51.189 27.0808 51.4768 27.0193 51.742 26.8996 52.0072 26.7798 52.2437 26.6047 52.4356 26.3859 52.661 26.143 52.8053 25.8359 52.8486 25.5073 52.9364 24.7693 49.8437 24.1631 49.132 23.8731 48.8527 23.7612 48.5543 23.7045 48.2534 23.7062L36.6118 24.0664 26.499 23.9434C26.3819 23.9364 26.2645 23.9364 26.1475 23.9434 25.8737 23.9543 25.6023 23.9986 25.3392 24.0752 24.4111 24.3629 23.5948 24.9307 23.0021 25.7006 22.3827 26.4676 21.9549 27.3712 21.7545 28.3365 21.694 28.6258 21.6588 28.9197 21.649 29.2151L21.649 29.8125 21.649 39.7409C21.6929 46.7873 22.3871 56.452 22.6418 65.2996 22.7824 70.2813 22.8264 75.307 22.8264 80.4996L18.6705 80.4996 18.6705 100.093 22.8176 100.093 22.8176 104.371C22.7971 105.113 22.8501 105.855 22.9757 106.586 23.0675 107.107 23.2456 107.609 23.5029 108.07 23.8368 108.69 24.3644 109.185 25.0053 109.476 25.5322 109.699 26.1039 109.795 26.6747 109.757L31.7179 109.757C38.2021 109.757 43.0344 109.318 47.656 109.195 52.9276 109.072 58.1993 109.608 63.2074 109.775 66.9327 109.907 70.5175 110.03 74.0056 110.03 75.3762 110.03 76.7292 110.03 78.0735 109.968L84.9531 109.766C85.9986 109.766 86.0689 109.766 86.148 109.766 86.2271 109.766 86.2886 109.766 87.2902 109.766L91.1209 109.766C93.6777 109.766 94.2576 109.511 95.2328 109.134 95.7249 108.949 99.0724 108.422 99.0372 108.009 99.0021 107.596 93.2999 106.911 92.7727 106.919 89.3725 106.981 87.0881 106.296 84.4874 106.357L82.6511 106.357C81.6934 106.357 81.6231 106.357 81.5528 106.357 81.4825 106.357 81.3947 106.357 80.2876 106.357L77.9593 106.559C73.1797 106.726 68.2946 106.559 63.0668 106.375 58.0763 106.199 53.0243 105.786 47.8053 105.909 43.2453 106.032 38.0527 106.34 31.7091 106.348L26.4375 106.348C26.3792 106.216 26.335 106.078 26.3057 105.935 26.2142 105.134 26.1819 104.326 26.209 103.519 26.209 103.045 26.209 102.57 26.209 102.131L26.209 100.11 106.163 100.11C106.102 102.25 106.158 104.391 106.33 106.524 106.338 106.586 106.334 106.649 106.317 106.71 106.3 106.77 106.271 106.827 106.231 106.875 106.192 106.924 106.143 106.963 106.087 106.993 106.032 107.021 105.971 107.039 105.908 107.042 105.583 107.157 102.095 107.113 102.464 107.921 102.833 108.729 105.855 108.879 106.435 108.949 106.747 108.99 107.063 108.967 107.365 108.88 107.668 108.794 107.949 108.648 108.192 108.448 108.467 108.211 108.678 107.909 108.807 107.57 108.853 107.414 108.888 107.256 108.913 107.095L108.966 106.814C109.22 105.408 109.379 102.421 109.484 100.154L115.318 100.154Z" fill="#001350" transform="matrix(1.00365 0 0 1 550.261 150.834)"/><path d="M26.376 91.7112 26.376 94.8567 24.5397 94.8567 24.5397 85.9212 28.0541 85.9212C28.6602 85.9102 29.2609 86.0359 29.8113 86.2902 30.2931 86.5153 30.6969 86.8794 30.9711 87.3357 31.2486 87.7998 31.3916 88.3324 31.384 88.8733 31.4063 89.2627 31.3386 89.6525 31.1862 90.0122 31.0339 90.3719 30.801 90.6915 30.5054 90.9469 29.7961 91.4932 28.9129 91.7651 28.019 91.7112ZM26.376 90.2176 28.019 90.2176C28.4252 90.2363 28.8236 90.1012 29.1348 89.8398 29.2664 89.7129 29.3691 89.5597 29.4358 89.3901 29.5026 89.2198 29.5317 89.0375 29.5214 88.8558 29.5369 88.4642 29.3981 88.0826 29.1348 87.7926 28.9947 87.6521 28.8272 87.5422 28.6428 87.4697 28.4584 87.3973 28.261 87.3632 28.0629 87.3709L26.376 87.3709Z" fill="#67D6FF" transform="matrix(1.00365 0 0 1 550.261 150.834)"/><path d="M35.8299 91.5965 34.3626 91.5965 34.3626 94.8649 32.5175 94.8649 32.5175 85.9206 35.8475 85.9206C36.7188 85.8613 37.5834 86.1101 38.29 86.6235 38.5808 86.8657 38.8116 87.1716 38.9641 87.5175 39.1166 87.8635 39.1866 88.2402 39.1686 88.618 39.1896 89.1567 39.0488 89.6893 38.7645 90.1468 38.4677 90.5795 38.0529 90.9183 37.5695 91.122L39.5025 94.7683 39.5025 94.8561 37.508 94.8561ZM34.3626 90.1028 35.8475 90.1028C36.239 90.1253 36.6247 90.0001 36.9281 89.7514 37.0552 89.624 37.1544 89.4713 37.2194 89.3038 37.2844 89.1358 37.3139 88.9562 37.306 88.7761 37.3155 88.5949 37.2886 88.4137 37.2267 88.2435 37.1648 88.0727 37.0692 87.9162 36.9457 87.7833 36.7973 87.6504 36.6233 87.5494 36.4345 87.4862 36.2457 87.4225 36.046 87.3984 35.8475 87.4143L34.3626 87.4143Z" fill="#67D6FF" transform="matrix(1.00365 0 0 1 550.261 150.834)"/><path d="M45.4682 93.0198 42.2437 93.0198 41.6287 94.8561 39.6694 94.8561 42.9905 85.9206 44.7038 85.9206 48.0513 94.8561 46.092 94.8561ZM42.7357 91.5262 44.9674 91.5262 43.8516 88.1787Z" fill="#67D6FF" transform="matrix(1.00365 0 0 1 550.261 150.834)"/><path d="M55.6513 91.8782C55.6371 92.3103 55.5349 92.7354 55.3504 93.1264 55.1664 93.5179 54.9039 93.8677 54.5794 94.1538 53.866 94.7304 52.9653 95.0242 52.049 94.9797 51.5396 95.0033 51.0315 94.911 50.5628 94.7106 50.094 94.5096 49.677 94.2049 49.3429 93.8199 48.6406 92.9171 48.2909 91.7898 48.3588 90.6481L48.3588 90.0946C48.3415 89.3143 48.4976 88.54 48.8157 87.8278 49.0862 87.2062 49.5398 86.6817 50.1161 86.3253 50.8084 85.9388 51.5981 85.7619 52.3891 85.8163 53.1801 85.8712 53.938 86.1546 54.5706 86.6329 55.223 87.2375 55.614 88.0727 55.6601 88.9612L53.815 88.9612C53.8179 88.4961 53.6453 88.0474 53.3318 87.7048 52.9756 87.4104 52.5179 87.2682 52.0578 87.3094 51.7908 87.2929 51.524 87.3445 51.2826 87.4599 51.0412 87.5752 50.8333 87.7504 50.6784 87.9684 50.3237 88.5894 50.1588 89.3011 50.2039 90.0155L50.2039 90.7184C50.1526 91.451 50.3046 92.184 50.6432 92.8359 50.7955 93.0594 51.004 93.2389 51.2477 93.3559 51.4914 93.4734 51.7618 93.5239 52.0314 93.5036 52.4895 93.5382 52.9441 93.4004 53.3054 93.117 53.6322 92.7875 53.8154 92.3422 53.815 91.8782Z" fill="#67D6FF" transform="matrix(1.00365 0 0 1 550.261 150.834)"/><path d="M63.2865 87.4055 60.5452 87.4055 60.5452 94.8561 58.7001 94.8561 58.7001 87.4055 56.0028 87.4055 56.0028 85.9206 63.2865 85.9206Z" fill="#67D6FF" transform="matrix(1.00365 0 0 1 550.261 150.834)"/><path d="M66.1683 94.8561 64.3584 94.8561 64.3584 85.9206 66.2035 85.9206Z" fill="#67D6FF" transform="matrix(1.00365 0 0 1 550.261 150.834)"/><path d="M74.3043 87.4055 71.563 87.4055 71.563 94.8561 69.7179 94.8561 69.7179 87.4055 66.9942 87.4055 66.9942 85.9206 74.2779 85.9206Z" fill="#67D6FF" transform="matrix(1.00365 0 0 1 550.261 150.834)"/><path d="M77.1861 94.8561 75.341 94.8561 75.341 85.9206 77.1861 85.9206Z" fill="#67D6FF" transform="matrix(1.00365 0 0 1 550.261 150.834)"/><path d="M86.1128 90.5861C86.1304 91.3851 85.9684 92.178 85.6384 92.9056 85.3545 93.5388 84.8899 94.0742 84.3029 94.4432 83.6999 94.7946 83.0146 94.9797 82.3172 94.9797 81.6198 94.9797 80.9345 94.7946 80.3316 94.4432 79.7423 94.0791 79.2723 93.5508 78.9785 92.9232 78.6485 92.2077 78.4837 91.4268 78.4953 90.6388L78.4953 90.1995C78.4788 89.3983 78.6408 88.6026 78.9697 87.8712 79.2542 87.2336 79.722 86.6955 80.314 86.3248 80.9169 85.9739 81.6023 85.7888 82.2997 85.7888 82.997 85.7888 83.6824 85.9739 84.2853 86.3248 84.8756 86.6933 85.3435 87.2281 85.6296 87.8624 85.9646 88.5889 86.1299 89.3824 86.1128 90.1819ZM84.2414 90.1819C84.2815 89.4483 84.1074 88.719 83.7406 88.082 83.5786 87.8519 83.3633 87.6641 83.1135 87.5345 82.8631 87.4049 82.5858 87.3368 82.304 87.3368 82.0223 87.3368 81.745 87.4049 81.4946 87.5345 81.2448 87.6641 81.0295 87.8519 80.8675 88.082 80.4936 88.7229 80.3162 89.4593 80.3579 90.1995L80.3579 90.63C80.3173 91.3735 80.4941 92.1127 80.8675 92.7562 81.0295 92.9869 81.2448 93.1747 81.4946 93.3043 81.745 93.4339 82.0223 93.502 82.304 93.502 82.5858 93.502 82.8631 93.4339 83.1135 93.3043 83.3633 93.1747 83.5786 92.9869 83.7406 92.7562 84.1151 92.1165 84.2892 91.379 84.2414 90.6388Z" fill="#67D6FF" transform="matrix(1.00365 0 0 1 550.261 150.834)"/><path d="M94.5914 94.8561 92.7464 94.8561 89.1616 88.9606 89.1616 94.8386 87.3253 94.8386 87.3253 85.9206 89.1616 85.9206 92.7551 91.8161 92.7551 85.9206 94.5914 85.9206Z" fill="#67D6FF" transform="matrix(1.00365 0 0 1 550.261 150.834)"/><path d="M101.453 90.9814 97.939 90.9814 97.939 93.3537 102.086 93.3537 102.086 94.8298 96.0763 94.8298 96.0763 85.9206 102.06 85.9206 102.06 87.4055 97.9214 87.4055 97.9214 89.5405 101.436 89.5405Z" fill="#67D6FF" transform="matrix(1.00365 0 0 1 550.261 150.834)"/><path d="M106.338 91.5965 104.862 91.5965 104.862 94.8649 103.017 94.8649 103.017 85.9206 106.338 85.9206C107.21 85.8613 108.074 86.1101 108.781 86.6235 109.072 86.8657 109.303 87.1716 109.455 87.5175 109.607 87.8635 109.678 88.2402 109.66 88.618 109.697 89.1517 109.561 89.6833 109.274 90.1341 108.985 90.585 108.56 90.9315 108.061 91.122L109.994 94.7683 109.994 94.8561 108.017 94.8561ZM104.862 90.1028 106.356 90.1028C106.745 90.1243 107.127 89.9985 107.428 89.7514 107.557 89.6251 107.658 89.473 107.722 89.3049 107.788 89.1364 107.816 88.9562 107.806 88.7761 107.817 88.5949 107.792 88.4132 107.729 88.2424 107.667 88.0716 107.571 87.9151 107.446 87.7833 107.297 87.6504 107.123 87.5494 106.934 87.4862 106.745 87.4225 106.546 87.3984 106.347 87.4143L104.862 87.4143Z" fill="#67D6FF" transform="matrix(1.00365 0 0 1 550.261 150.834)"/><path d="M76.7907 15.1661 57.1977 15.1661 57.1977 34.7591 76.7907 34.7591Z" fill="#FF6633" transform="matrix(1.00365 0 0 1 550.261 150.834)"/><path d="M67.7586 32.0442 66.2298 32.0442 66.2298 29.7861 68.2858 27.2557 66.2298 27.2557 66.2298 24.1894 62.5221 24.1894 66.2298 19.6118 66.2298 17.8897 67.7586 17.8897 67.7586 20.1477 65.7114 22.6781 67.7586 22.6781 67.7586 25.7445 71.4664 25.7445 67.7586 30.3221Z" fill="#FFFFFF" transform="matrix(1.00365 0 0 1 550.261 150.834)"/></g></svg>