<?xml version="1.0" encoding="UTF-8" standalone="no"?>
<!-- Created with Inkscape (http://www.inkscape.org/) -->

<svg
   width="155.45721mm"
   height="126.5514mm"
   viewBox="0 0 155.45721 126.5514"
   version="1.1"
   id="svg1"
   xml:space="preserve"
   inkscape:version="1.3.2 (091e20e, 2023-11-25, custom)"
   sodipodi:docname="logo.svg"
   inkscape:export-filename="assets\img\business\logo2.svg"
   inkscape:export-xdpi="96"
   inkscape:export-ydpi="96"
   xmlns:inkscape="http://www.inkscape.org/namespaces/inkscape"
   xmlns:sodipodi="http://sodipodi.sourceforge.net/DTD/sodipodi-0.dtd"
   xmlns="http://www.w3.org/2000/svg"
   xmlns:svg="http://www.w3.org/2000/svg"><sodipodi:namedview
     id="namedview1"
     pagecolor="#ffffff"
     bordercolor="#000000"
     borderopacity="0.25"
     inkscape:showpageshadow="2"
     inkscape:pageopacity="0.0"
     inkscape:pagecheckerboard="0"
     inkscape:deskcolor="#d1d1d1"
     inkscape:document-units="mm"
     inkscape:zoom="0.70710678"
     inkscape:cx="-2194.8594"
     inkscape:cy="-152.02796"
     inkscape:window-width="3840"
     inkscape:window-height="1514"
     inkscape:window-x="-11"
     inkscape:window-y="331"
     inkscape:window-maximized="1"
     inkscape:current-layer="layer1" /><defs
     id="defs1" /><g
     inkscape:label="Calque 1"
     inkscape:groupmode="layer"
     id="layer1"
     transform="translate(428.29249,-160.73236)"><path
       style="fill:#fec810;fill-opacity:1;stroke:none;stroke-width:0.276385;stroke-opacity:1;stop-color:#000000"
       d="m -365.55631,212.65876 c 0,0 4.41143,-12.26913 24.28109,-14.36067 19.86966,-2.09154 28.93302,-10.34151 34.85904,-18.1267 5.92605,-7.7852 24.40136,-12.20068 33.5809,-13.01405 l -4.34195,-6.32698 c -9.17955,0.81339 -27.65486,5.22885 -33.5809,13.01405 -5.92603,7.78519 -14.98939,16.03518 -34.85905,18.12672 -19.86966,2.09154 -24.28108,14.36065 -24.28108,14.36065"
       id="path131"
       sodipodi:nodetypes="cssccssc" /><path
       style="fill:#fec810;fill-opacity:0;stroke:none;stroke-width:0.168972;stop-color:#000000"
       d="m -417.90416,234.29996 v -9.9453 l 18.30114,9.91197"
       id="path132"
       sodipodi:nodetypes="ccc" /><path
       id="path133"
       style="fill:#fec810;fill-opacity:1;stroke-width:0.430828;stop-color:#000000"
       d="m -392.43105,173.34642 c -19.86706,0 -35.86146,13.36634 -35.86146,29.96953 v 16.61975 h 78.38224 v -16.61975 c 0,-16.60319 -15.99438,-29.96953 -35.86144,-29.96953 z m 42.52078,68.92421 c 26.18689,-77.58231 13.09346,-38.79116 0,0 z m 0,0 c 0,0 -13.52833,-0.47371 -20.16609,-1.67227 -6.62552,-1.19637 -19.44154,-5.47596 -19.44154,-5.47596 0,0 -12.96751,4.22165 -19.65899,5.41452 -6.29521,1.12224 -19.11562,1.61087 -19.11562,1.61087 v 7.01947 c 1.30885,18.60043 15.32929,26.21309 28.69976,34.92998 4.77227,3.46518 13.50179,4.24601 17.99805,1.63998 16.42072,-7.90464 31.40601,-19.104 31.68443,-36.56996 z m -78.38224,-0.12284 c 78.44171,-77.5004 39.22084,-38.7502 0,0 z"
       sodipodi:nodetypes="ssccssscccscscccccccc" /><path
       style="fill:#fec810;fill-opacity:1;stroke:none;stroke-width:0.276385;stroke-opacity:1;stop-color:#000000"
       d="m -316.64821,160.73235 c 0,0 -4.41143,12.2691 -24.28109,14.36065 -19.86966,2.09154 -28.93302,10.34153 -34.85905,18.12672 -5.92604,7.78517 -24.40135,12.20065 -33.5809,13.01403 l 4.34196,6.32698 c 9.17955,-0.81338 27.65485,-5.22886 33.58088,-13.01405 5.92605,-7.7852 14.98941,-16.03516 34.85907,-18.1267 19.86966,-2.09155 24.28106,-14.36067 24.28106,-14.36067 z"
       id="path134"
       sodipodi:nodetypes="cssccssc" /><path
       style="fill:#fec810;fill-opacity:0;stroke:none;stroke-width:0.168972;stop-color:#000000"
       d="m -360.29858,234.29996 v -9.9453 l -18.30116,9.91197"
       id="path135"
       sodipodi:nodetypes="ccc" /></g></svg>
