<?xml version="1.0" encoding="UTF-8" standalone="no"?>
<svg
   width="478"
   height="232"
   viewBox="0 0 478 232"
   fill="none"
   version="1.1"
   id="svg59"
   sodipodi:docname="thcon2.svg"
   inkscape:version="1.3.2 (091e20e, 2023-11-25, custom)"
   xmlns:inkscape="http://www.inkscape.org/namespaces/inkscape"
   xmlns:sodipodi="http://sodipodi.sourceforge.net/DTD/sodipodi-0.dtd"
   xmlns="http://www.w3.org/2000/svg"
   xmlns:svg="http://www.w3.org/2000/svg">
  <defs
     id="defs59" />
  <sodipodi:namedview
     id="namedview59"
     pagecolor="#ffffff"
     bordercolor="#000000"
     borderopacity="0.25"
     inkscape:showpageshadow="2"
     inkscape:pageopacity="0.0"
     inkscape:pagecheckerboard="0"
     inkscape:deskcolor="#d1d1d1"
     inkscape:zoom="1.8851101"
     inkscape:cx="-101.85081"
     inkscape:cy="17.240372"
     inkscape:window-width="3840"
     inkscape:window-height="1514"
     inkscape:window-x="-11"
     inkscape:window-y="262"
     inkscape:window-maximized="1"
     inkscape:current-layer="svg59" />
  <path
     d="M147.625 13.3934L119.053 0V17.8578H8.33398V48.2162H55.3596V107.147H83.9322V48.2162H119.053V107.445H147.625V77.9792H197.032V107.147H225.604V17.8578H197.032V47.6209H147.625V13.3934Z"
     fill="#F22C54"
     id="path1" />
  <mask
     id="mask0_935_286"
     style="mask-type:alpha"
     maskUnits="userSpaceOnUse"
     x="0"
     y="107"
     width="108"
     height="96">
    <path
       d="M107.489 107.147H48.2162V107.148L48.1124 107.148C48.0478 107.148 47.9832 107.147 47.9185 107.147C21.4539 107.147 0 128.601 0 155.066C0 181.531 21.4539 202.985 47.9185 202.985C48.0178 202.985 48.117 202.984 48.2162 202.984V202.985H107.489C107.459 202.965 107.43 202.945 107.4 202.925L84.5271 172.626H48.2162V172.624C48.1172 172.625 48.0179 172.626 47.9185 172.626C38.2203 172.626 30.3583 164.764 30.3583 155.066C30.3583 145.368 38.2203 137.506 47.9185 137.506C48.0179 137.506 48.1172 137.507 48.2162 137.508V137.506H84.5271L107.4 107.207L107.489 107.147Z"
       fill="#7A7A7A"
       id="path2" />
  </mask>
  <g
     mask="url(#mask0_935_286)"
     id="g22">
    <path
       d="M106.254 105.361L30.9531 205.365"
       stroke="#F22C54"
       stroke-width="3.57157"
       id="path3" />
    <path
       d="M147.922 105.361L72.6211 205.365"
       stroke="#F22C54"
       stroke-width="3.57157"
       id="path4" />
    <path
       d="M114.588 105.361L39.2871 205.365"
       stroke="#F22C54"
       stroke-width="3.57157"
       id="path5" />
    <path
       d="M156.256 105.361L80.9551 205.365"
       stroke="#F22C54"
       stroke-width="3.57157"
       id="path6" />
    <path
       d="M122.922 105.361L47.6211 205.365"
       stroke="#F22C54"
       stroke-width="3.57157"
       id="path7" />
    <path
       d="M164.59 105.361L89.2891 205.365"
       stroke="#F22C54"
       stroke-width="3.57157"
       id="path8" />
    <path
       d="M172.924 105.361L97.623 205.365"
       stroke="#F22C54"
       stroke-width="3.57157"
       id="path9" />
    <path
       d="M181.258 105.361L105.957 205.365"
       stroke="#F22C54"
       stroke-width="3.57157"
       id="path10" />
    <path
       d="M97.9197 105.361L22.6191 205.365"
       stroke="#F22C54"
       stroke-width="3.57157"
       id="path11" />
    <path
       d="M139.59 105.361L64.2891 205.365"
       stroke="#F22C54"
       stroke-width="3.57157"
       id="path12" />
    <path
       d="M89.5877 105.361L14.2871 205.365"
       stroke="#F22C54"
       stroke-width="3.57157"
       id="path13" />
    <path
       d="M131.256 105.361L55.9551 205.365"
       stroke="#F22C54"
       stroke-width="3.57157"
       id="path14" />
    <path
       d="M81.2537 105.361L5.95312 205.365"
       stroke="#F22C54"
       stroke-width="3.57157"
       id="path15" />
    <path
       d="M72.9197 105.361L-2.38086 205.365"
       stroke="#F22C54"
       stroke-width="3.57157"
       id="path16" />
    <path
       d="M64.5857 105.361L-10.7148 205.365"
       stroke="#F22C54"
       stroke-width="3.57157"
       id="path17" />
    <path
       d="M56.2517 105.361L-19.0488 205.365"
       stroke="#F22C54"
       stroke-width="3.57157"
       id="path18" />
    <path
       d="M47.9178 105.361L-27.3828 205.365"
       stroke="#F22C54"
       stroke-width="3.57157"
       id="path19" />
    <path
       d="M39.5857 105.361L-35.7148 205.365"
       stroke="#F22C54"
       stroke-width="3.57157"
       id="path20" />
    <path
       d="M31.2517 105.361L-44.0488 205.365"
       stroke="#F22C54"
       stroke-width="3.57157"
       id="path21" />
    <path
       d="M22.9178 105.361L-52.3828 205.365"
       stroke="#F22C54"
       stroke-width="3.57157"
       id="path22" />
  </g>
  <mask
     id="mask1_935_286"
     style="mask-type:alpha"
     maskUnits="userSpaceOnUse"
     x="93"
     y="107"
     width="210"
     height="97">
    <path
       fill-rule="evenodd"
       clip-rule="evenodd"
       d="M197.033 107.147V120.933C188.382 112.408 176.505 107.147 163.4 107.147L163.302 107.148C163.235 107.148 163.169 107.148 163.103 107.148V107.147H141.673V107.148C141.574 107.148 141.475 107.147 141.376 107.147C114.911 107.147 93.457 128.601 93.457 155.066C93.457 181.531 114.911 202.985 141.376 202.985L141.512 202.984C141.566 202.984 141.62 202.984 141.673 202.984V202.985H163.103V202.984C163.202 202.984 163.301 202.985 163.4 202.985C176.505 202.985 188.382 197.724 197.033 189.199V202.985H225.605V152.005L274.186 203.693L274.939 202.985H302.989V107.147H274.416V159.611L225.605 107.678V107.147H197.033ZM163.103 137.508C163.155 137.507 163.208 137.507 163.261 137.506C163.307 137.506 163.354 137.506 163.4 137.506C173.099 137.506 180.96 145.368 180.96 155.066C180.96 164.764 173.099 172.626 163.4 172.626L163.321 172.626L163.243 172.626L163.224 172.625C163.184 172.625 163.143 172.624 163.103 172.624V172.626H141.673V172.624L141.629 172.624L141.577 172.625L141.535 172.626L141.488 172.626L141.428 172.626L141.376 172.626C131.677 172.626 123.815 164.764 123.815 155.066C123.815 145.368 131.677 137.506 141.376 137.506L141.437 137.506L141.531 137.506C141.559 137.507 141.587 137.507 141.615 137.507L141.673 137.508V137.506H163.103V137.508Z"
       fill="#999999"
       id="path23" />
  </mask>
  <g
     mask="url(#mask1_935_286)"
     id="g54">
    <path
       d="M121.137 105.361L45.8359 205.365"
       stroke="#F22C54"
       stroke-width="3.57157"
       id="path24" />
    <path
       d="M129.47 105.361L54.1699 205.365"
       stroke="#F22C54"
       stroke-width="3.57157"
       id="path25" />
    <path
       d="M137.804 105.361L62.5039 205.365"
       stroke="#F22C54"
       stroke-width="3.57157"
       id="path26" />
    <path
       d="M146.138 105.361L70.8379 205.365"
       stroke="#F22C54"
       stroke-width="3.57157"
       id="path27" />
    <path
       d="M154.47 105.361L79.1699 205.365"
       stroke="#F22C54"
       stroke-width="3.57157"
       id="path28" />
    <path
       d="M162.804 105.361L87.5039 205.365"
       stroke="#F22C54"
       stroke-width="3.57157"
       id="path29" />
    <path
       d="M171.138 105.361L95.8379 205.365"
       stroke="#F22C54"
       stroke-width="3.57157"
       id="path30" />
    <path
       d="M179.472 105.361L104.172 205.365"
       stroke="#F22C54"
       stroke-width="3.57157"
       id="path31" />
    <path
       d="M187.806 105.361L112.506 205.365"
       stroke="#F22C54"
       stroke-width="3.57157"
       id="path32" />
    <path
       d="M196.14 105.361L120.84 205.365"
       stroke="#F22C54"
       stroke-width="3.57157"
       id="path33" />
    <path
       d="M204.472 105.361L129.172 205.365"
       stroke="#F22C54"
       stroke-width="3.57157"
       id="path34" />
    <path
       d="M212.806 105.361L137.506 205.365"
       stroke="#F22C54"
       stroke-width="3.57157"
       id="path35" />
    <path
       d="M221.14 105.361L145.84 205.365"
       stroke="#F22C54"
       stroke-width="3.57157"
       id="path36" />
    <path
       d="M229.474 105.361L154.174 205.365"
       stroke="#F22C54"
       stroke-width="3.57157"
       id="path37" />
    <path
       d="M237.808 105.361L162.508 205.365"
       stroke="#F22C54"
       stroke-width="3.57157"
       id="path38" />
    <path
       d="M246.142 105.361L170.842 205.365"
       stroke="#F22C54"
       stroke-width="3.57157"
       id="path39" />
    <path
       d="M254.474 105.361L179.174 205.365"
       stroke="#F22C54"
       stroke-width="3.57157"
       id="path40" />
    <path
       d="M262.808 105.361L187.508 205.365"
       stroke="#F22C54"
       stroke-width="3.57157"
       id="path41" />
    <path
       d="M271.142 105.361L195.842 205.365"
       stroke="#F22C54"
       stroke-width="3.57157"
       id="path42" />
    <path
       d="M279.476 105.361L204.176 205.365"
       stroke="#F22C54"
       stroke-width="3.57157"
       id="path43" />
    <path
       d="M287.81 105.361L212.51 205.365"
       stroke="#F22C54"
       stroke-width="3.57157"
       id="path44" />
    <path
       d="M296.144 105.361L220.844 205.365"
       stroke="#F22C54"
       stroke-width="3.57157"
       id="path45" />
    <path
       d="M304.476 105.361L229.176 205.365"
       stroke="#F22C54"
       stroke-width="3.57157"
       id="path46" />
    <path
       d="M312.81 105.361L237.51 205.365"
       stroke="#F22C54"
       stroke-width="3.57157"
       id="path47" />
    <path
       d="M321.144 105.361L245.844 205.365"
       stroke="#F22C54"
       stroke-width="3.57157"
       id="path48" />
    <path
       d="M329.478 105.361L254.178 205.365"
       stroke="#F22C54"
       stroke-width="3.57157"
       id="path49" />
    <path
       d="M337.812 105.361L262.512 205.365"
       stroke="#F22C54"
       stroke-width="3.57157"
       id="path50" />
    <path
       d="M346.146 105.361L270.846 205.365"
       stroke="#F22C54"
       stroke-width="3.57157"
       id="path51" />
    <path
       d="M354.478 105.361L279.178 205.365"
       stroke="#F22C54"
       stroke-width="3.57157"
       id="path52" />
    <path
       d="M362.812 105.361L287.512 205.365"
       stroke="#F22C54"
       stroke-width="3.57157"
       id="path53" />
    <path
       d="M371.146 105.361L295.846 205.365"
       stroke="#F22C54"
       stroke-width="3.57157"
       id="path54" />
  </g>
  <path
     d="M6.13357 226.723H3.63348V215.556H6.13357V226.723ZM9.73371 217.806H0.0333346V215.556H9.73371V217.806ZM16.678 226.889C15.5557 226.889 14.5946 226.656 13.7946 226.189C13.0056 225.712 12.3945 225.045 11.9611 224.189C11.5278 223.323 11.3111 222.306 11.3111 221.139C11.3111 219.972 11.5278 218.961 11.9611 218.106C12.3945 217.239 13.0056 216.572 13.7946 216.106C14.5946 215.628 15.5557 215.389 16.678 215.389C17.7892 215.389 18.7447 215.628 19.5448 216.106C20.3448 216.572 20.9559 217.239 21.3782 218.106C21.8115 218.961 22.0282 219.972 22.0282 221.139C22.0282 222.306 21.8115 223.323 21.3782 224.189C20.9559 225.045 20.3448 225.712 19.5448 226.189C18.7447 226.656 17.7892 226.889 16.678 226.889ZM16.678 224.473C17.3114 224.473 17.8225 224.378 18.2114 224.189C18.6114 223.989 18.9003 223.65 19.0781 223.173C19.267 222.684 19.3614 222.006 19.3614 221.139C19.3614 220.261 19.267 219.583 19.0781 219.106C18.9003 218.628 18.6114 218.295 18.2114 218.106C17.8225 217.906 17.3114 217.806 16.678 217.806C16.0335 217.806 15.5113 217.906 15.1113 218.106C14.7224 218.295 14.4335 218.628 14.2446 219.106C14.0668 219.583 13.9779 220.261 13.9779 221.139C13.9779 222.006 14.0668 222.684 14.2446 223.173C14.4335 223.65 14.7224 223.989 15.1113 224.189C15.5113 224.378 16.0335 224.473 16.678 224.473ZM29.5818 226.889C28.4928 226.889 27.5817 226.706 26.8483 226.339C26.1261 225.973 25.5816 225.456 25.2149 224.789C24.8593 224.111 24.6816 223.306 24.6816 222.372V215.556H27.165V222.339C27.165 222.873 27.2372 223.295 27.3817 223.606C27.5372 223.917 27.7872 224.139 28.1317 224.273C28.4762 224.406 28.9595 224.473 29.5818 224.473C30.1929 224.473 30.6707 224.406 31.0151 224.273C31.3707 224.139 31.6207 223.917 31.7652 223.606C31.9096 223.295 31.9818 222.873 31.9818 222.339V215.556H34.4819V222.372C34.4819 223.306 34.2986 224.111 33.9319 224.789C33.5652 225.456 33.0152 225.973 32.2819 226.339C31.5596 226.706 30.6596 226.889 29.5818 226.889ZM40.0277 226.723H37.5276V215.556H40.0277V226.723ZM45.7946 226.723H38.2277V224.473H45.7946V226.723ZM52.6573 226.889C51.535 226.889 50.5739 226.656 49.7738 226.189C48.9849 225.712 48.3738 225.045 47.9404 224.189C47.5071 223.323 47.2904 222.306 47.2904 221.139C47.2904 219.972 47.5071 218.961 47.9404 218.106C48.3738 217.239 48.9849 216.572 49.7738 216.106C50.5739 215.628 51.535 215.389 52.6573 215.389C53.7684 215.389 54.724 215.628 55.524 216.106C56.3241 216.572 56.9352 217.239 57.3574 218.106C57.7908 218.961 58.0075 219.972 58.0075 221.139C58.0075 222.306 57.7908 223.323 57.3574 224.189C56.9352 225.045 56.3241 225.712 55.524 226.189C54.724 226.656 53.7684 226.889 52.6573 226.889ZM52.6573 224.473C53.2906 224.473 53.8018 224.378 54.1907 224.189C54.5907 223.989 54.8796 223.65 55.0574 223.173C55.2463 222.684 55.3407 222.006 55.3407 221.139C55.3407 220.261 55.2463 219.583 55.0574 219.106C54.8796 218.628 54.5907 218.295 54.1907 218.106C53.8018 217.906 53.2906 217.806 52.6573 217.806C52.0128 217.806 51.4906 217.906 51.0905 218.106C50.7016 218.295 50.4127 218.628 50.2238 219.106C50.0461 219.583 49.9572 220.261 49.9572 221.139C49.9572 222.006 50.0461 222.684 50.2238 223.173C50.4127 223.65 50.7016 223.989 51.0905 224.189C51.4906 224.378 52.0128 224.473 52.6573 224.473ZM65.561 226.889C64.4721 226.889 63.5609 226.706 62.8276 226.339C62.1053 225.973 61.5609 225.456 61.1942 224.789C60.8386 224.111 60.6608 223.306 60.6608 222.372V215.556H63.1443V222.339C63.1443 222.873 63.2165 223.295 63.3609 223.606C63.5165 223.917 63.7665 224.139 64.111 224.273C64.4554 224.406 64.9388 224.473 65.561 224.473C66.1722 224.473 66.65 224.406 66.9944 224.273C67.35 224.139 67.6 223.917 67.7444 223.606C67.8889 223.295 67.9611 222.873 67.9611 222.339V215.556H70.4612V222.372C70.4612 223.306 70.2779 224.111 69.9112 224.789C69.5445 225.456 68.9945 225.973 68.2611 226.339C67.5389 226.706 66.6388 226.889 65.561 226.889ZM78.1443 226.889C77.0554 226.889 76.1554 226.745 75.4442 226.456C74.7331 226.167 74.2053 225.739 73.8608 225.173C73.5164 224.606 73.3441 223.911 73.3441 223.089V222.873H75.7942V223.039C75.7942 223.45 75.8609 223.773 75.9942 224.006C76.1276 224.228 76.3665 224.389 76.7109 224.489C77.0665 224.578 77.5832 224.623 78.261 224.623C78.9721 224.623 79.4444 224.545 79.6777 224.389C79.9111 224.234 80.0277 223.967 80.0277 223.589C80.0277 223.334 79.9888 223.128 79.9111 222.973C79.8444 222.817 79.6888 222.689 79.4444 222.589C79.1999 222.478 78.8166 222.384 78.2943 222.306L76.3276 221.956C75.6165 221.834 75.0331 221.634 74.5775 221.356C74.1331 221.067 73.8053 220.711 73.5941 220.289C73.3941 219.856 73.2941 219.35 73.2941 218.772C73.2941 218.195 73.4386 217.65 73.7275 217.139C74.0275 216.628 74.5053 216.211 75.1609 215.889C75.8276 215.556 76.6887 215.389 77.7443 215.389C78.811 215.389 79.6722 215.556 80.3277 215.889C80.9944 216.222 81.4833 216.683 81.7945 217.272C82.1056 217.85 82.2612 218.511 82.2612 219.256V219.389H79.7944V219.206C79.7944 218.817 79.7333 218.511 79.6111 218.289C79.4888 218.067 79.2721 217.906 78.961 217.806C78.6499 217.706 78.2166 217.656 77.661 217.656C76.9498 217.656 76.4554 217.739 76.1776 217.906C75.9109 218.061 75.7776 218.317 75.7776 218.672C75.7776 218.906 75.822 219.095 75.9109 219.239C75.9998 219.372 76.1554 219.478 76.3776 219.556C76.6109 219.633 76.9443 219.717 77.3776 219.806L79.361 220.189C80.1389 220.334 80.7555 220.567 81.2111 220.889C81.6778 221.2 82.0111 221.578 82.2112 222.022C82.4112 222.467 82.5112 222.961 82.5112 223.506C82.5112 224.095 82.3667 224.65 82.0778 225.173C81.7889 225.684 81.3278 226.1 80.6944 226.423C80.0611 226.734 79.211 226.889 78.1443 226.889ZM87.5172 226.723H85.0171V215.556H87.5172V226.723ZM93.5341 226.723H85.7172V224.473H93.5341V226.723ZM93.2841 222.222H85.7172V219.989H93.2841V222.222ZM93.5341 217.806H85.7172V215.556H93.5341V217.806ZM110.987 226.723H108.487V215.556H110.987V226.723ZM103.62 226.723H101.12V215.556H103.62V226.723ZM109.754 222.222H101.82V219.989H109.754V222.222ZM115.603 226.723H113.003L117.12 215.556H120.754L124.87 226.723H122.154L119.804 220.272L118.987 217.756H118.82L117.97 220.272L115.603 226.723ZM122.687 224.239H115.287V222.006H122.687V224.239ZM131.682 226.889C130.56 226.889 129.599 226.656 128.799 226.189C128.01 225.712 127.399 225.045 126.965 224.189C126.543 223.323 126.332 222.306 126.332 221.139C126.332 219.972 126.543 218.961 126.965 218.106C127.399 217.239 128.01 216.572 128.799 216.106C129.599 215.628 130.56 215.389 131.682 215.389C132.793 215.389 133.721 215.572 134.466 215.939C135.221 216.306 135.793 216.828 136.182 217.506C136.571 218.172 136.766 218.967 136.766 219.889V220.039H134.099V219.956C134.099 219.156 133.916 218.6 133.549 218.289C133.182 217.967 132.554 217.806 131.665 217.806C131.032 217.806 130.521 217.9 130.132 218.089C129.743 218.278 129.454 218.611 129.265 219.089C129.088 219.567 128.999 220.25 128.999 221.139C128.999 222.017 129.088 222.7 129.265 223.189C129.454 223.667 129.743 224 130.132 224.189C130.521 224.378 131.032 224.473 131.665 224.473C132.554 224.473 133.182 224.317 133.549 224.006C133.916 223.684 134.099 223.123 134.099 222.322V222.239H136.766V222.389C136.766 223.311 136.571 224.111 136.182 224.789C135.793 225.456 135.221 225.973 134.466 226.339C133.721 226.706 132.793 226.889 131.682 226.889ZM149.493 226.723H146.626L144.126 222.422H140.692V220.006H144.092L146.709 215.556H149.543L146.176 221.089L149.493 226.723ZM141.976 226.723H139.476V215.556H141.976V226.723ZM154.088 226.723H151.588V215.556H154.088V226.723ZM159.706 226.723H157.206V215.556H159.873L163.49 221.156L164.423 222.656H164.59L164.556 221.156V215.556H167.057V226.723H164.39L160.923 221.439L159.84 219.722H159.673L159.706 221.439V226.723ZM174.685 226.889C173.618 226.889 172.718 226.662 171.984 226.206C171.251 225.739 170.69 225.078 170.301 224.223C169.923 223.356 169.734 222.328 169.734 221.139C169.734 219.972 169.951 218.961 170.384 218.106C170.818 217.239 171.44 216.572 172.251 216.106C173.062 215.628 174.035 215.389 175.168 215.389C176.279 215.389 177.212 215.567 177.968 215.922C178.724 216.267 179.296 216.756 179.685 217.389C180.074 218.022 180.268 218.783 180.268 219.672V219.756H177.618V219.689C177.618 218.978 177.429 218.489 177.051 218.222C176.674 217.945 176.029 217.806 175.118 217.806C174.485 217.806 173.968 217.9 173.568 218.089C173.168 218.278 172.873 218.617 172.684 219.106C172.496 219.583 172.401 220.261 172.401 221.139C172.401 222.028 172.501 222.717 172.701 223.206C172.901 223.695 173.218 224.034 173.651 224.223C174.085 224.411 174.651 224.506 175.351 224.506C175.94 224.506 176.418 224.461 176.785 224.373C177.162 224.284 177.44 224.117 177.618 223.873C177.807 223.628 177.901 223.278 177.901 222.823V222.072H180.301V222.322L178.168 225.023H177.885C177.774 225.311 177.59 225.6 177.335 225.889C177.09 226.178 176.751 226.417 176.318 226.606C175.885 226.795 175.34 226.889 174.685 226.889ZM180.301 226.723H177.985V223.706L177.901 223.506V221.089H180.301V226.723ZM180.301 222.873H174.851V220.789H180.301V222.873ZM193.175 226.889C192.052 226.889 191.091 226.656 190.291 226.189C189.502 225.712 188.891 225.045 188.458 224.189C188.036 223.323 187.825 222.306 187.825 221.139C187.825 219.972 188.036 218.961 188.458 218.106C188.891 217.239 189.502 216.572 190.291 216.106C191.091 215.628 192.052 215.389 193.175 215.389C194.286 215.389 195.214 215.572 195.958 215.939C196.714 216.306 197.286 216.828 197.675 217.506C198.064 218.172 198.258 218.967 198.258 219.889V220.039H195.592V219.956C195.592 219.156 195.408 218.6 195.041 218.289C194.675 217.967 194.047 217.806 193.158 217.806C192.525 217.806 192.014 217.9 191.625 218.089C191.236 218.278 190.947 218.611 190.758 219.089C190.58 219.567 190.491 220.25 190.491 221.139C190.491 222.017 190.58 222.7 190.758 223.189C190.947 223.667 191.236 224 191.625 224.189C192.014 224.378 192.525 224.473 193.158 224.473C194.047 224.473 194.675 224.317 195.041 224.006C195.408 223.684 195.592 223.123 195.592 222.322V222.239H198.258V222.389C198.258 223.311 198.064 224.111 197.675 224.789C197.286 225.456 196.714 225.973 195.958 226.339C195.214 226.706 194.286 226.889 193.175 226.889ZM206.199 226.889C205.077 226.889 204.116 226.656 203.316 226.189C202.527 225.712 201.916 225.045 201.482 224.189C201.049 223.323 200.832 222.306 200.832 221.139C200.832 219.972 201.049 218.961 201.482 218.106C201.916 217.239 202.527 216.572 203.316 216.106C204.116 215.628 205.077 215.389 206.199 215.389C207.31 215.389 208.266 215.628 209.066 216.106C209.866 216.572 210.477 217.239 210.899 218.106C211.333 218.961 211.549 219.972 211.549 221.139C211.549 222.306 211.333 223.323 210.899 224.189C210.477 225.045 209.866 225.712 209.066 226.189C208.266 226.656 207.31 226.889 206.199 226.889ZM206.199 224.473C206.832 224.473 207.344 224.378 207.732 224.189C208.132 223.989 208.421 223.65 208.599 223.173C208.788 222.684 208.883 222.006 208.883 221.139C208.883 220.261 208.788 219.583 208.599 219.106C208.421 218.628 208.132 218.295 207.732 218.106C207.344 217.906 206.832 217.806 206.199 217.806C205.555 217.806 205.032 217.906 204.632 218.106C204.243 218.295 203.955 218.628 203.766 219.106C203.588 219.583 203.499 220.261 203.499 221.139C203.499 222.006 203.588 222.684 203.766 223.173C203.955 223.65 204.243 223.989 204.632 224.189C205.032 224.378 205.555 224.473 206.199 224.473ZM216.753 226.723H214.253V215.556H216.919L220.536 221.156L221.47 222.656H221.636L221.603 221.156V215.556H224.103V226.723H221.436L217.969 221.439L216.886 219.722H216.719L216.753 221.439V226.723ZM233.586 226.723H230.253L226.203 215.556H229.019L231.869 223.923H232.036L234.836 215.556H237.636L233.586 226.723ZM242.247 226.723H239.747V215.556H242.247V226.723ZM248.264 226.723H240.447V224.473H248.264V226.723ZM248.014 222.222H240.447V219.989H248.014V222.222ZM248.264 217.806H240.447V215.556H248.264V217.806ZM253.578 226.723H251.078V215.556H253.745L257.362 221.156L258.295 222.656H258.462L258.429 221.156V215.556H260.929V226.723H258.262L254.795 221.439L253.712 219.722H253.545L253.578 221.439V226.723ZM269.094 226.723H266.594V215.556H269.094V226.723ZM272.695 217.806H262.994V215.556H272.695V217.806ZM277.266 226.723H274.766V215.556H277.266V226.723ZM285.387 226.889C284.265 226.889 283.304 226.656 282.504 226.189C281.715 225.712 281.104 225.045 280.67 224.189C280.237 223.323 280.02 222.306 280.02 221.139C280.02 219.972 280.237 218.961 280.67 218.106C281.104 217.239 281.715 216.572 282.504 216.106C283.304 215.628 284.265 215.389 285.387 215.389C286.498 215.389 287.454 215.628 288.254 216.106C289.054 216.572 289.665 217.239 290.087 218.106C290.521 218.961 290.737 219.972 290.737 221.139C290.737 222.306 290.521 223.323 290.087 224.189C289.665 225.045 289.054 225.712 288.254 226.189C287.454 226.656 286.498 226.889 285.387 226.889ZM285.387 224.473C286.02 224.473 286.532 224.378 286.92 224.189C287.32 223.989 287.609 223.65 287.787 223.173C287.976 222.684 288.071 222.006 288.071 221.139C288.071 220.261 287.976 219.583 287.787 219.106C287.609 218.628 287.32 218.295 286.92 218.106C286.532 217.906 286.02 217.806 285.387 217.806C284.743 217.806 284.22 217.906 283.82 218.106C283.431 218.295 283.143 218.628 282.954 219.106C282.776 219.583 282.687 220.261 282.687 221.139C282.687 222.006 282.776 222.684 282.954 223.173C283.143 223.65 283.431 223.989 283.82 224.189C284.22 224.378 284.743 224.473 285.387 224.473ZM295.941 226.723H293.441V215.556H296.107L299.724 221.156L300.658 222.656H300.824L300.791 221.156V215.556H303.291V226.723H300.624L297.157 221.439L296.074 219.722H295.907L295.941 221.439V226.723Z"
     fill="#F22C54"
     id="path55" />
  <path
     d="M395 103H475.583V126.904H422.398V133.677H448C464.569 133.677 478 147.109 478 163.677V173C478 189.569 464.569 203 448 203H425C408.431 203 395 189.569 395 173V167.542H418.945C418.945 176.401 426.02 183.637 434.877 183.836L441.31 183.981C448.492 184.142 454.401 178.365 454.401 171.181C454.401 164.11 448.669 158.378 441.598 158.378H395V103Z"
     fill="#F7F7F7"
     id="path56"
     style="fill:#bdbdbd;fill-opacity:1" />
  <path
     d="M398.286 106.862H316.973V91.3726C316.973 85.1767 317.911 80.161 319.787 76.3254C321.663 72.4899 324.23 69.3428 327.489 66.8841C330.846 64.4254 334.647 62.1634 338.893 60.0981L365.257 47.2637C366.738 46.5753 367.923 45.936 368.812 45.346C369.7 44.6575 370.342 43.8707 370.737 42.9856C371.132 42.0021 371.33 40.7728 371.33 39.2976C371.33 37.429 370.935 35.9538 370.145 34.8719C369.355 33.7901 367.973 33.0033 365.998 32.5116C364.023 32.0199 361.258 31.774 357.703 31.774C353.754 31.774 350.792 32.1182 348.817 32.8066C346.842 33.4951 345.509 34.6261 344.818 36.1996C344.225 37.6748 343.929 39.691 343.929 42.248V44.9034H316.084V42.543C316.084 35.9538 317.516 29.9546 320.379 24.5454C323.341 19.038 328.032 14.6615 334.45 11.4161C340.868 8.17059 349.36 6.54785 359.925 6.54785C369.108 6.54785 376.563 7.97389 382.29 10.826C388.116 13.678 392.362 17.5628 395.028 22.4801C397.792 27.2992 399.175 32.7083 399.175 38.7075C399.175 45.0017 397.842 50.2633 395.176 54.4923C392.51 58.6229 389.103 62.0159 384.956 64.6712C380.809 67.2283 376.563 69.2444 372.218 70.7196L353.704 76.9155C350.841 77.899 349.014 78.8825 348.224 79.8659C347.434 80.8494 347.039 82.0296 347.039 83.4064L361.258 81.9312H398.286V106.862Z"
     fill="#F7F7F7"
     id="path57"
     style="fill:#bdbdbd;fill-opacity:1" />
  <path
     d="M431.464 108.338C421.392 108.338 412.901 106.223 405.989 101.994C399.176 97.6668 394.041 91.7168 390.585 84.1441C387.129 76.473 385.401 67.5725 385.401 57.4427C385.401 47.3129 387.129 38.4616 390.585 30.8889C394.041 23.2178 399.176 17.2677 405.989 13.0388C412.901 8.7115 421.392 6.54785 431.464 6.54785C441.536 6.54785 449.978 8.7115 456.791 13.0388C463.703 17.2677 468.887 23.2178 472.343 30.8889C475.799 38.4616 477.527 47.3129 477.527 57.4427C477.527 67.5725 475.799 76.473 472.343 84.1441C468.887 91.7168 463.703 97.6668 456.791 101.994C449.978 106.223 441.536 108.338 431.464 108.338ZM431.464 81.3411C435.71 81.3411 438.968 80.8002 441.239 79.7184C443.609 78.5382 445.238 76.2271 446.127 72.7849C447.114 69.3427 447.608 64.2287 447.608 57.4427C447.608 50.5584 447.114 45.4443 446.127 42.1005C445.238 38.6583 443.609 36.3963 441.239 35.3145C438.968 34.1343 435.71 33.5442 431.464 33.5442C427.218 33.5442 423.91 34.1343 421.541 35.3145C419.171 36.3963 417.541 38.6583 416.653 42.1005C415.764 45.4443 415.32 50.5584 415.32 57.4427C415.32 64.2287 415.764 69.3427 416.653 72.7849C417.541 76.2271 419.171 78.5382 421.541 79.7184C423.91 80.8002 427.218 81.3411 431.464 81.3411Z"
     fill="#F7F7F7"
     id="path58"
     style="fill:#bdbdbd;fill-opacity:1" />
  <path
     d="M399.172 201.224H317.859V185.734C317.859 179.539 318.797 174.523 320.673 170.687C322.549 166.852 325.116 163.705 328.375 161.246C331.732 158.787 335.534 156.525 339.78 154.46L366.143 141.626C367.625 140.937 368.809 140.298 369.698 139.708C370.587 139.019 371.229 138.233 371.624 137.347C372.019 136.364 372.216 135.135 372.216 133.659C372.216 131.791 371.821 130.316 371.031 129.234C370.241 128.152 368.859 127.365 366.884 126.873C364.909 126.382 362.144 126.136 358.59 126.136C354.64 126.136 351.678 126.48 349.703 127.169C347.728 127.857 346.395 128.988 345.704 130.561C345.112 132.037 344.815 134.053 344.815 136.61V139.265H316.97V136.905C316.97 130.316 318.402 124.316 321.266 118.907C324.228 113.4 328.918 109.023 335.336 105.778C341.754 102.532 350.246 100.91 360.811 100.91C369.994 100.91 377.449 102.336 383.176 105.188C389.002 108.04 393.248 111.925 395.914 116.842C398.679 121.661 400.061 127.07 400.061 133.069C400.061 139.364 398.728 144.625 396.062 148.854C393.396 152.985 389.989 156.378 385.842 159.033C381.695 161.59 377.449 163.606 373.105 165.081L354.591 171.277C351.727 172.261 349.901 173.244 349.111 174.228C348.321 175.211 347.926 176.391 347.926 177.768L362.144 176.293H399.172V201.224Z"
     fill="#F7F7F7"
     id="path59"
     style="fill:#bdbdbd;fill-opacity:1" />
</svg>
