<?xml version="1.0" encoding="UTF-8" standalone="no"?>
<!-- Created with Inkscape (http://www.inkscape.org/) -->

<svg
   width="157.79266mm"
   height="124.69246mm"
   viewBox="0 0 157.79266 124.69246"
   version="1.1"
   id="svg1"
   xml:space="preserve"
   inkscape:version="1.3.2 (091e20e, 2023-11-25, custom)"
   sodipodi:docname="logo.svg"
   xmlns:inkscape="http://www.inkscape.org/namespaces/inkscape"
   xmlns:sodipodi="http://sodipodi.sourceforge.net/DTD/sodipodi-0.dtd"
   xmlns="http://www.w3.org/2000/svg"
   xmlns:svg="http://www.w3.org/2000/svg"><sodipodi:namedview
     id="namedview1"
     pagecolor="#ffffff"
     bordercolor="#000000"
     borderopacity="0.25"
     inkscape:showpageshadow="2"
     inkscape:pageopacity="0.0"
     inkscape:pagecheckerboard="0"
     inkscape:deskcolor="#d1d1d1"
     inkscape:document-units="mm"
     inkscape:zoom="1"
     inkscape:cx="-1123"
     inkscape:cy="299.5"
     inkscape:window-width="3840"
     inkscape:window-height="1514"
     inkscape:window-x="-11"
     inkscape:window-y="331"
     inkscape:window-maximized="1"
     inkscape:current-layer="layer1" /><defs
     id="defs1" /><g
     inkscape:label="Calque 1"
     inkscape:groupmode="layer"
     id="layer1"
     transform="translate(523.2881,118.59987)"><path
       style="fill:#fec810;fill-opacity:1;stroke-width:0.966583"
       d="m -448.29165,4.272443 c -1.42755,-0.3844002 -3.0661,-1.1443855 -4.21971,-1.9571944 l -0.7031,-0.495364 -1.1135,0.9123767 c -0.61504,0.5040438 -1.39864,0.9123767 -1.75067,0.9123767 -0.84151,0 -3.50222,-1.7394621 -5.33544,-3.48807773 l -1.46834,-1.40060717 -3.24269,0.30486981 c -4.34218,0.40825548 -11.25518,0.16932592 -14.45408,-0.49956861 -2.72751,-0.5703127 -16.23772,-4.9141833 -16.6897,-5.3661477 -0.57637,-0.5764312 0.2837,-0.8637285 3.8732,-1.2937128 1.97618,-0.2367258 3.66209,-0.4994236 3.74638,-0.5837676 0.0841,-0.084383 -0.28592,-0.2959676 -0.82276,-0.4702714 -1.41314,-0.4587595 -5.72884,-2.6520418 -8.04467,-4.0884128 -6.3894,-3.962805 -12.14666,-9.655029 -16.63315,-16.445253 -1.7703,-2.679415 -8.13824,-14.811148 -8.13824,-15.504536 0,-0.59208 1.22911,-0.190291 3.87735,1.267528 1.5331,0.843952 2.83402,1.53445 2.89105,1.53445 0.057,0 -0.33483,-0.949435 -0.8707,-2.109866 -1.08305,-2.34522 -2.35459,-6.160505 -2.83286,-8.500031 -0.49566,-2.424238 -0.44395,-8.023129 0.10265,-11.12814 0.49161,-2.79237 0.7578,-3.580386 1.20949,-3.580386 0.14692,0 1.4375,0.578335 2.86814,1.285177 8.68561,4.291598 15.79802,1.561176 19.57658,-7.515373 1.63498,-3.927408 1.6487,-3.668123 -0.41679,-7.862415 -3.36854,-6.840524 -4.92764,-12.266813 -5.31949,-18.514447 -0.38335,-6.11286 0.81841,-11.55712 3.59984,-16.30873 l 1.1572,-1.97679 h 1.4954 c 1.80335,0 5.68176,0.94899 8.19652,2.00557 4.61611,1.93947 9.98451,5.54719 14.71264,9.88728 1.30199,1.19511 2.48306,2.17293 2.62466,2.17293 0.1417,0 1.48264,-0.40131 2.98007,-0.89181 3.19098,-1.04529 6.78135,-1.97167 10.00181,-2.58065 3.40885,-0.64462 20.29389,-0.80851 24.29544,-0.23581 3.68085,0.52679 8.26516,1.6395 12.11689,2.94099 l 3.10012,1.04754 2.70247,-2.44029 c 5.04189,-4.55259 9.7881,-7.77006 14.40914,-9.76793 2.64215,-1.14233 6.59644,-2.13782 8.49172,-2.13782 1.48322,0 1.50545,0.011 2.18003,1.0796 6.12397,9.70115 5.45336,23.083779 -1.8541,36.993705 l -1.66243,3.164581 0.90492,2.333863 c 1.23539,3.185769 2.54259,5.325551 4.38132,7.17153 4.03829,4.054302 9.31283,4.536607 15.62848,1.429083 1.43064,-0.703875 2.77506,-1.279784 2.98781,-1.279784 0.47826,0 0.55211,0.24179 1.09281,3.580386 1.08954,6.727502 0.0628,13.928919 -2.82628,19.81735 -0.48233,0.98316 -0.84141,1.823091 -0.79792,1.86652 0.0435,0.0434 1.34336,-0.617125 2.88883,-1.467882 2.66854,-1.468973 3.89987,-1.873092 3.89987,-1.279929 0,0.754901 -6.39104,12.848338 -8.30295,15.711327 -6.19453,9.275974 -13.71629,15.627717 -23.65575,19.9761213 -2.23358,0.9771763 -2.30491,0.9368698 2.63336,1.486778 1.8049,0.2009912 3.35452,0.4382196 3.44345,0.5271742 0.0889,0.088926 0.0512,0.337173 -0.0851,0.551619 -0.30709,0.4853018 -13.31274,4.7582543 -16.68853,5.4829399 -3.19756,0.68642831 -10.32678,0.94265003 -14.3902,0.51718938 l -2.88544,-0.30212468 -1.42677,1.39536826 c -1.72922,1.69111364 -4.47373,3.48909264 -5.32587,3.48909264 -0.34266,0 -1.09127,-0.4008129 -1.66359,-0.8906866 l -1.04052,-0.8906962 -0.87167,0.5387055 c -2.7014,1.6695395 -4.98863,2.2714208 -8.54594,2.2488124 -1.45664,-0.00967 -3.25246,-0.179504 -3.99083,-0.3783301 z m -6.31556,-5.7534186 c 3.2368,-2.44991 7.42201,-4.0810859 10.47119,-4.0810859 3.05575,0 7.23439,1.6311565 10.48868,4.0943474 l 1.72119,1.30274066 0.99046,-0.68641864 c 2.95436,-2.04734762 5.44505,-6.11739502 6.48248,-10.59273092 0.50233,-2.166981 0.50069,-6.778479 0,-9.498124 -0.50823,-2.742118 -1.67644,-6.927237 -1.87807,-6.728024 -0.0851,0.08429 -0.44647,1.094017 -0.80236,2.243748 -0.50813,1.641296 -0.75007,2.090409 -1.12568,2.090409 -0.38596,0 -0.59387,-0.434238 -1.07417,-2.243564 -1.29203,-4.867285 -3.51517,-9.002413 -6.37983,-11.867141 -1.03028,-1.030232 -1.98797,-1.873141 -2.12841,-1.873141 -0.74678,0 -4.168,5.845834 -5.28363,9.028162 -0.3847,1.0974 -0.78728,1.902989 -0.89458,1.790189 -0.10738,-0.112791 -0.60991,-1.285749 -1.11688,-2.606574 -1.39652,-3.638227 -4.25905,-8.211777 -5.13971,-8.211777 -0.63185,0 -3.81674,3.404633 -5.07088,5.420712 -1.49105,2.39668 -2.76965,5.371183 -3.52223,8.193798 -0.30998,1.16248 -0.66791,2.228678 -0.7955,2.369336 -0.39813,0.439031 -1.11833,-0.750794 -1.61612,-2.669905 -0.2576,-0.993067 -0.54641,-1.805576 -0.64191,-1.805576 -0.2429,0 -1.69519,5.612665 -2.05148,7.927998 -0.36015,2.340734 -0.14962,7.196265 0.40471,9.334569 0.54718,2.1108903 2.14059,5.357506 3.41861,6.9656385 0.87582,1.1020395 3.40914,3.3919027 3.75247,3.3919027 0.0503,0 0.85803,-0.58026854 1.79504,-1.2894888 z m 9.92507,-6.1524434 c -2.10213,-0.6023163 -5.23714,-3.681162 -6.13074,-6.020998 -0.79347,-2.077698 0.26252,-4.233042 2.73252,-5.577443 1.15101,-0.626432 1.75667,-0.772531 3.5607,-0.858828 2.61654,-0.125162 3.96463,0.201049 5.42089,1.31174 1.56441,1.193275 2.25136,2.319025 2.25136,3.689678 0,1.606605 -0.58681,2.661756 -2.66361,4.789639 -2.38582,2.4444876 -3.65716,3.0999756 -5.17112,2.666212 z m -35.51109,-11.479077 c -0.086,-0.138521 -0.98427,-0.742713 -1.99696,-1.342642 -6.5166,-3.860415 -13.22391,-10.377192 -17.91512,-17.406316 -2.5282,-3.788279 -6.31875,-11.554809 -5.93917,-12.169024 0.0715,-0.116289 0.9111,-0.284291 1.86502,-0.373342 2.48644,-0.232135 4.49471,-0.802332 6.95872,-1.975686 5.65412,-2.692522 9.28238,-6.78597 9.69782,-10.941154 0.15688,-1.569334 0.21091,-1.679544 0.93382,-1.906159 0.42191,-0.132296 2.551,-0.25541 4.73113,-0.273601 4.38722,-0.03663 6.47649,0.310853 10.0135,1.665238 2.1463,0.821847 5.71096,2.958371 7.66375,4.593317 0.68617,0.574556 1.26042,1.005159 1.27598,0.956897 0.0155,-0.04823 0.0764,-0.946932 0.13465,-1.997037 0.10729,-1.927926 0.61291,-3.200567 1.19595,-3.010605 0.16693,0.05432 0.85891,1.120791 1.53774,2.369848 1.42725,2.625886 3.2164,4.961556 5.09302,6.648803 1.27018,1.141949 2.93754,2.166914 3.52512,2.166914 0.4021,0 1.82859,-3.224336 2.88525,-6.521417 0.95914,-2.992917 2.73466,-10.593881 2.73466,-11.707239 0,-0.697399 -1.39971,-1.923741 -4.22725,-3.703616 -1.37448,-0.865188 -5.58173,-2.874675 -6.01872,-2.874675 -0.17418,0 -0.20356,0.861254 -0.087,2.551575 0.14711,2.136902 0.11376,2.575334 -0.2055,2.697829 -0.22067,0.08467 -1.23191,-0.435049 -2.40176,-1.234442 -6.30976,-4.311577 -13.02828,-6.701366 -19.69287,-7.004757 -2.32743,-0.105956 -3.4043,-0.06602 -3.5259,0.130769 -0.0967,0.155823 0.52225,1.11389 1.37468,2.129034 0.85233,1.015153 1.50912,1.968716 1.45954,2.11902 -0.0503,0.152923 -1.1513,0.340662 -2.49939,0.426253 -2.5743,0.163439 -5.63064,1.035703 -7.5523,2.155373 -1.02042,0.594535 -1.06769,0.682523 -1.60482,2.988248 -1.51289,6.493985 -5.17363,10.756131 -10.95563,12.755575 -2.44487,0.845451 -3.62478,1.048085 -7.10332,1.219953 l -3.32466,0.164261 -0.0754,1.862702 c -0.0416,1.02448 0.0435,2.505121 0.18858,3.290314 0.14518,0.785194 0.20086,1.529695 0.12372,1.654442 -0.20801,0.336612 -1.05676,-0.197241 -2.3168,-1.457259 -1.25095,-1.251028 -1.34181,-1.096752 -0.60866,1.034195 1.07823,3.13368 4.23335,8.615586 6.77613,11.773267 0.45314,0.562628 1.00274,1.368217 1.22138,1.790188 0.61474,1.18648 4.07656,4.782003 6.76356,7.024745 5.79225,4.834721 11.34478,7.74746 18.23275,9.564538 1.76198,0.464801 1.85535,0.474099 1.66474,0.165673 z m 76.30097,-1.270979 c 6.18835,-2.022246 12.30025,-5.671955 17.72104,-10.582118 2.71812,-2.462002 3.08891,-2.889202 6.719,-7.74048 3.22684,-4.312331 5.58434,-8.648131 6.49322,-11.941829 l 0.26784,-0.9704 -1.53156,1.417947 c -0.84237,0.779878 -1.65527,1.417948 -1.80644,1.417948 -0.17892,0 -0.21681,-0.379432 -0.10874,-1.086903 0.32748,-2.143465 0.47933,-4.750898 0.31481,-5.406377 -0.16441,-0.654917 -0.20955,-0.667638 -2.40041,-0.67538 -6.52356,-0.0231 -11.81309,-1.988744 -14.83627,-5.513416 -1.92746,-2.247208 -3.53682,-5.931599 -4.01151,-9.18383 -0.25798,-1.767213 -0.45352,-2.041568 -1.98884,-2.789896 -2.15277,-1.049274 -5.08915,-1.685585 -7.77857,-1.685585 -1.80287,0 -2.38862,-0.08245 -2.38862,-0.336158 0,-0.184888 0.69053,-1.156477 1.53445,-2.159085 0.84392,-1.002616 1.53445,-1.960954 1.53445,-2.129661 0,-0.427752 -6.16313,-0.136482 -8.69519,0.410933 -4.69159,1.014293 -9.92361,3.286197 -14.29566,6.207606 -1.39294,0.9308 -2.56927,1.548707 -2.7883,1.464672 -0.31655,-0.12148 -0.34971,-0.56808 -0.20163,-2.718349 l 0.17728,-2.572985 -0.58865,0.171839 c -2.05737,0.600654 -7.10294,3.465711 -9.15596,5.199074 l -0.89505,0.755722 0.70367,3.476547 c 1.24525,6.152723 3.4622,13.25871 4.63815,14.866988 0.34681,0.474215 0.37571,0.47406 1.46998,-0.0077 1.65846,-0.730417 5.46235,-4.684842 6.89386,-7.166794 0.64596,-1.119825 1.3216,-2.410068 1.50158,-2.867213 0.19216,-0.488269 0.50842,-0.831155 0.7666,-0.831155 0.63398,0 1.06092,1.138006 1.22157,3.256175 l 0.14025,1.849595 0.9225,-0.777568 c 1.80635,-1.522589 5.23965,-3.649497 7.28494,-4.512896 3.68597,-1.556005 5.90544,-1.977367 10.38854,-1.972254 2.48741,0.0029 4.31009,0.123316 4.89304,0.323428 0.90143,0.309451 0.93217,0.362275 1.03656,1.779508 0.43815,5.949586 8.50196,12.246041 16.66253,13.010656 0.97828,0.09163 1.80084,0.298316 1.86628,0.468879 0.0648,0.167741 -0.4077,1.5336 -1.04913,3.035234 -4.43526,10.384036 -11.9862,19.41214 -21.34978,25.526413 -2.99409,1.955087 -2.8491,2.154773 0.71817,0.989036 z m -57.94527,-17.982207 c 0.856,-0.469701 1.59679,-0.975233 1.64618,-1.123401 0.14209,-0.426243 -3.11964,-1.994775 -6.19424,-2.978737 -2.83248,-0.90649 -8.78402,-2.222724 -10.05034,-2.222724 -0.64065,0 -0.59831,0.07356 0.69923,1.214782 3.92906,3.455678 6.26055,5.000383 8.83969,5.856659 1.50526,0.499752 3.26018,0.240795 5.05948,-0.746579 z m 40.20674,0.807155 c 2.42342,-0.667184 5.47617,-2.659784 9.33458,-6.092796 1.12694,-1.002655 1.13641,-1.024113 0.45874,-1.031585 -1.25385,-0.01382 -7.95333,1.498319 -10.61462,2.39583 -2.63336,0.888077 -5.70014,2.355919 -5.70014,2.728237 0,0.253844 2.6032,1.753497 3.52745,2.032143 0.99142,0.298868 1.82501,0.290014 2.99399,-0.0318 z m 23.7935,-46.389432 c 1.21557,-3.348174 2.53602,-8.5278 3.0398,-11.923734 0.70155,-4.729307 0.39205,-10.821767 -0.60015,-11.814007 -0.54544,-0.54542 -4.86916,2.18867 -7.74938,4.90027 -1.88416,1.77386 -6.99188,7.910439 -6.76937,8.132946 0.0706,0.07017 0.79289,0.0048 1.60608,-0.145828 2.10144,-0.38846 5.22379,-0.360681 5.20997,0.0464 -0.01,0.175821 -0.28978,1.125256 -0.6306,2.109866 -0.57173,1.65129 -0.5869,1.814991 -0.19602,2.109866 0.23304,0.175821 0.86577,0.319678 1.40599,0.319678 1.07059,0 2.75612,0.598527 2.75612,0.978684 0,0.130663 -0.18356,0.676782 -0.40781,1.213593 -0.62334,1.491872 -0.41872,4.795323 0.3763,6.074111 0.33434,0.537768 0.70309,0.882529 0.81946,0.766152 0.11638,-0.116386 0.62925,-1.361953 1.13961,-2.767944 z m -90.68392,1.599463 c 0.91101,-2.112206 0.88955,-3.33095 -0.11454,-6.499514 -0.22763,-0.718258 0.43332,-1.082283 2.49359,-1.373505 0.84973,-0.120107 1.64774,-0.321118 1.7733,-0.446696 0.13387,-0.13392 -0.0396,-0.971986 -0.42056,-2.027137 -0.35687,-0.989355 -0.64887,-1.928757 -0.64887,-2.087567 0,-0.409821 3.56659,-0.355924 5.62387,0.08496 0.91293,0.195675 1.69848,0.317194 1.74555,0.270044 0.14421,-0.144176 -4.27781,-5.521668 -6.06801,-7.379169 -0.92676,-0.96164 -2.31797,-2.23723 -3.09162,-2.83465 -2.02267,-1.56196 -5.05049,-3.29643 -5.47221,-3.13463 -1.07155,0.4112 -1.4954,6.77279 -0.77617,11.648897 0.84451,5.724363 3.53538,14.865838 4.37601,14.865838 0.0609,0 0.32188,-0.489111 0.57966,-1.086903 z"
       id="path93" /><path
       id="path94"
       style="fill:#333333;fill-opacity:1"
       d="m -443.7388,-78.829785 -0.8532,5.14646 c -1.2922,7.79166 -2.5311,12.90355 -4.2612,17.58187 -1.0873,2.94032 -1.8782,4.36563 -2.4221,4.36563 -0.8055,0 -3.5096,-1.93478 -5.2322,-3.74344 -1.7994,-1.88931 -3.9966,-5.09982 -4.7594,-6.95462 -0.2729,-0.6636 -0.5662,-1.20714 -0.6522,-1.20768 -0.4231,-0.003 -0.8221,2.22278 -0.7291,4.06487 0.056,1.11081 0.069,2.02003 0.029,2.02003 -0.04,0 -0.9356,-0.72719 -1.9895,-1.6154 -3.582,-3.01907 -7.9881,-5.21191 -12.2303,-6.08748 -2.4428,-0.50419 -7.5039,-0.64767 -9.9089,-0.28112 l -1.1736,0.1788 -0.3189,1.89497 c -0.4441,2.63911 -1.446,4.35348 -4.0721,6.96857 -3.6571,3.64187 -8.4591,5.95066 -13.0591,6.27972 -2.0604,0.14738 -2.0684,0.15094 -1.8996,0.8232 0.3533,1.40784 2.7361,6.39094 4.3589,9.11521 2.5902,4.34825 5.5949,8.17986 9.3875,11.97084 3.7589,3.75735 6.7226,6.08894 10.9389,8.6062 1.4985,0.89462 2.6796,1.76245 2.6246,1.92856 -0.1818,0.55019 -2.4995,1.79811 -3.6184,1.9482 -0.6056,0.0812 -1.0046,0.23814 -0.8867,0.34882 0.3735,0.35057 5.1526,1.77929 7.4905,2.23914 1.237,0.24329 3.8861,0.50809 5.8869,0.58859 3.3481,0.13464 3.6381,0.18638 3.6381,0.64958 0,1.16363 0.8954,4.71943 1.6402,6.51381 0.331,0.79751 0.5169,1.40036 0.5824,1.7508 l 0.067,0.16743 2.2505,3.37601999 1.5001,1.52187001 c 1.4587,1.47976 4.0684,3.36904 5.1113,3.70004 0.3712,0.11778 0.8437,-0.13917 1.6873,-0.91674 0.6446,-0.59413 1.2426,-1.08004 1.3286,-1.08004 0.086,0 0.6941,0.36937 1.3508,0.82114 1.4074,0.96833 3.5391,1.76018 5.6136,2.08462 3.4549,0.54034 8.2433,-0.3876 10.6903,-2.07119 0.6675,-0.45928 1.3068,-0.83457 1.4206,-0.83457 0.1138,0 0.7211,0.50436 1.3498,1.12138 l 1.1431,1.12189 1.5125,-0.7891 c 0.832,-0.43416 2.4273,-1.66125 3.5445,-2.72645 l 2.0314,-1.93631001 2.3673,-3.95686999 0.046,-0.0429 c 0.083,-0.25672 0.1568,-0.49532 0.3613,-0.95084 0.8373,-1.86582 1.7606,-5.30944 1.7606,-6.56756 v -0.88367 h 2.7517 c 1.5245,0 4.1039,-0.23165 5.7837,-0.51883 2.8465,-0.48663 8.0046,-1.93494 8.4801,-2.38125 0.1179,-0.11068 -0.2813,-0.26762 -0.8868,-0.34882 -1.2918,-0.17327 -3.5199,-1.46855 -3.6453,-2.11925 -0.048,-0.24899 0.058,-0.45268 0.2352,-0.45268 0.1771,0 1.3464,-0.61449 2.5988,-1.36529 9.3919,-5.63029 17.4651,-14.54016 22.3764,-24.69617 0.9148,-1.89177 1.8556,-3.9456 2.0908,-4.56406 l 0.4274,-1.12448 h -1.5426 c -4.5969,0 -10.7859,-2.98415 -14.5634,-7.02231 -1.998,-2.13586 -3.0202,-4.20055 -3.159,-6.37998 l -0.1049,-1.65416 -1.4847,-0.30799 c -2.3066,-0.47885 -8.6817,-0.17528 -11.2876,0.53744 -3.9075,1.0687 -7.7642,3.1427 -11.0102,5.92108 -0.9623,0.82367 -1.7961,1.49776 -1.8521,1.4981 -0.056,3.4e-4 -0.062,-0.92119 -0.013,-2.04742 0.084,-1.9306 -0.28,-4.04438 -0.6951,-4.03438 -0.1033,0.002 -0.4623,0.638 -0.7973,1.41232 -0.8999,2.07987 -2.5881,4.54139 -4.5408,6.61975 -1.7553,1.8682 -4.4933,3.87005 -5.2933,3.87005 -1.6605,0 -5.0889,-11.53053 -6.9194,-23.27042 z m 35.0253,33.62689 c 0.1804,0.18713 -2.8345,2.95206 -5.4643,5.01107 -1.1864,0.92886 -2.9722,2.07209 -3.9687,2.54093 -2.1585,1.01564 -4.8976,1.25921 -6.4239,0.57102 -1.234,-0.5564 -3.1931,-1.92488 -3.1931,-2.23035 0,-0.79105 4.5402,-2.81331 8.9958,-4.00699 3.2855,-0.88022 9.8387,-2.1093 10.0542,-1.88568 z m -69.2589,0.0935 c 1.4663,-0.0182 8.5741,1.474 11.3807,2.389 2.6764,0.8725 6.0779,2.45525 6.5826,3.06338 0.4258,0.5131 -0.1996,1.12492 -2.2433,2.19314 -3.825,1.99926 -8.2336,0.245 -14.8559,-5.91126 l -1.8521,-1.72186 z m 34.7096,1.85931 c 1.2902,0.0204 2.5568,0.14964 3.5486,0.38344 1.8197,0.429 4.2778,1.40418 4.2778,1.69706 0,0.10038 -0.3537,0.52115 -0.786,0.93534 l -0.786,0.75344 1.7208,1.57665 c 3.0821,2.82414 5.5958,7.23502 7.1194,12.49278 0.3746,1.29268 0.735,2.4037 0.8,2.4691 0.1662,0.1662 0.6096,-1.05501 1.2557,-3.45974 0.303,-1.12778 0.6389,-2.05052 0.7468,-2.05052 0.4115,0 2.1242,6.43121 2.6334,9.8888 0.3567,2.42254 0.144,6.9107 -0.4403,9.29349 -0.9594,3.91216 -3.9771,8.50724999 -6.9303,10.55388 l -1.0682,0.74052 -1.6696,-1.35185003 c -1.9624,-1.58897998 -5.2397,-3.26166997 -7.5288,-3.84213997 -4.5179,-1.14572 -9.3153,0.11172 -14.0684,3.68762997 -1.0646,0.80095003 -1.9767,1.45675003 -2.0267,1.45675003 -0.05,0 -0.6749,-0.46163 -1.3886,-1.02577004 -3.004,-2.37457996 -5.083,-5.57411996 -6.2957,-9.68984996 -0.6103,-2.07162 -0.7044,-2.8801 -0.7224,-6.21771 -0.022,-4.12546 0.3512,-6.37996 1.8655,-11.26081 0.7382,-2.37933 1.1343,-2.84622 1.3089,-1.54203 0.052,0.38771 0.42,1.72606 0.8176,2.97398 l 0.7224,2.2686 0.6067,-2.23914 c 0.7513,-2.77421 2.1723,-6.16303 3.5894,-8.55813 1.0517,-1.77751 4.255,-5.36774 5.3108,-5.95261 0.5086,-0.28177 0.4959,-0.32377 -0.3307,-1.08469 -0.4729,-0.43539 -0.8599,-0.84039 -0.8599,-0.89969 0,-0.24452 3.4372,-1.45964 4.8865,-1.72754 1.0873,-0.201 2.401,-0.28959 3.6913,-0.26924 z m -0.462,24.42125 c -1.3406,0.0242 -2.6795,0.29197 -3.7125,0.79737 -1.9544,0.9562 -2.874,2.16035 -3.0168,3.95118 -0.1,1.25238 -0.016,1.50841 0.9777,2.98018 1.3771,2.03909 2.1739,2.79739 3.9879,3.79718 0.7993,0.44052 1.6661,0.80264 1.9265,0.80564 1.5369,0.0155 5.4085,-3.3501 6.5386,-5.68441 1.1115,-2.29604 -0.073,-4.67607 -2.9792,-5.98465 -1.0392,-0.46794 -2.3816,-0.68672 -3.7222,-0.66249 z m 0.5508,1.79886 c 1.77,0.0894 2.0393,0.176 2.6076,0.83664 0.7823,0.90952 0.5099,1.62039 -0.8361,2.18281 -1.3016,0.54383 -3.5181,0.4779 -4.5222,-0.13436 -1.0364,-0.63174 -1.2325,-0.94244 -1.0196,-1.61333 0.3004,-0.94635 1.5917,-1.38178 3.7703,-1.27176 z" /></g></svg>
